<?xml version="1.0" standalone="no"?>
<!DOCTYPE svg PUBLIC "-//W3C//DTD SVG 1.1//EN" "http://www.w3.org/Graphics/SVG/1.1/DTD/svg11.dtd" >
<svg xmlns="http://www.w3.org/2000/svg">
<metadata></metadata>
<defs>
<font id="rockwell_condensedbold" horiz-adv-x="1130" >
<font-face units-per-em="2048" ascent="1638" descent="-410" />
<missing-glyph horiz-adv-x="682" />
<glyph horiz-adv-x="2048" />
<glyph horiz-adv-x="2048" />
<glyph unicode="&#xd;" horiz-adv-x="682" />
<glyph unicode=" "  horiz-adv-x="682" />
<glyph unicode="&#x09;" horiz-adv-x="682" />
<glyph unicode="&#xa0;" horiz-adv-x="682" />
<glyph unicode="!" horiz-adv-x="598" d="M139 0v319h320v-319h-320zM147 1026v412h306v-412l-91 -545h-124z" />
<glyph unicode="&#x22;" horiz-adv-x="971" d="M98 1180v258h289v-258l-94 -326h-100zM584 1180v258h288v-258l-94 -326h-100z" />
<glyph unicode="#" horiz-adv-x="1368" d="M80 373v190h207l63 301h-270v191h311l80 383h191l-80 -383h352l80 383h190l-80 -383h166v-191h-207l-63 -301h270v-190h-309l-80 -379h-190l80 379h-353l-80 -379h-190l80 379h-168zM477 563h352l64 301h-352z" />
<glyph unicode="$" horiz-adv-x="961" d="M61 416h256q8 -224 125 -228v418q-176 133 -257 241.5t-81 237.5q0 140 89.5 233.5t248.5 111.5v38h109v-38q310 -31 330 -379h-230q-4 141 -100 174v-351q187 -144 268.5 -264.5t81.5 -261.5q0 -148 -94.5 -251t-255.5 -117v-173h-109v173q-363 26 -381 436zM354 1120 q0 -83 88 -155v260q-88 -24 -88 -105zM551 188q46 9 73 44.5t27 82.5q0 102 -100 193v-320z" />
<glyph unicode="%" horiz-adv-x="1237" d="M29 1057q0 211 55.5 304t175.5 93t174.5 -96t54.5 -301q0 -207 -55 -302.5t-174 -95.5q-125 0 -178 96t-53 302zM217 940q0 -84 8.5 -107.5t32.5 -23.5q27 0 35 22.5t8 106.5v236q0 83 -8 107t-33 24t-34 -24.5t-9 -109.5v-231zM258 -16l567 1470h154l-567 -1470h-154z M750 381q0 196 51.5 296.5t179.5 100.5q120 0 174.5 -96t54.5 -301q0 -207 -55 -302t-174 -95q-125 0 -178 95.5t-53 301.5zM938 264q0 -84 8.5 -107.5t32.5 -23.5q27 0 35 22.5t8 106.5v236q0 84 -8 107.5t-33 23.5t-34 -24.5t-9 -108.5v-232z" />
<glyph unicode="&#x26;" horiz-adv-x="1217" d="M53 420q0 250 250 450q-78 146 -78 273q0 131 101 224t243 93q138 0 229 -82.5t91 -206.5q0 -182 -223 -337l157 -261q58 147 82 316h244v-215h-64q-33 -158 -127 -328l78 -131h113v-215h-326l-59 102q-149 -125 -305 -125q-178 0 -292 124.5t-114 318.5zM346 522 q0 -100 54.5 -194.5t127.5 -94.5q69 0 115 74l-217 367q-80 -68 -80 -152zM487 1190q0 -76 58 -154q108 71 108 156q0 35 -23 60.5t-55 25.5q-36 0 -62 -25.5t-26 -62.5z" />
<glyph unicode="'" horiz-adv-x="487" d="M100 1180v258h289v-258l-94 -326h-100z" />
<glyph unicode="(" horiz-adv-x="575" d="M76 502q0 337 118 594t328 360v-192q-70 -72 -102.5 -244.5t-32.5 -517.5q0 -346 32.5 -519.5t102.5 -242.5v-195q-219 111 -332.5 366t-113.5 591z" />
<glyph unicode=")" horiz-adv-x="575" d="M53 -262q70 71 102.5 244t32.5 518q0 346 -32 519t-103 243v194q219 -111 333 -365.5t114 -590.5q0 -338 -118 -595t-329 -360v193z" />
<glyph unicode="*" horiz-adv-x="1067" d="M76 1020l76 227l157 -53q52 -80 183 -139q-9 128 -78 215v168h237v-168q-67 -88 -76 -215q129 57 183 139l157 53l76 -227l-155 -51q-53 20 -117 20q-56 0 -113 -20q97 -109 187 -129l98 -133l-201 -144l-94 133q0 125 -64 215q-22 -32 -38 -72.5t-19.5 -65.5t-3.5 -77 l-94 -133l-201 144l98 133q90 20 187 129q-57 20 -113 20q-64 0 -117 -20z" />
<glyph unicode="+" horiz-adv-x="1366" d="M127 569v215h448v449h216v-449h448v-215h-448v-448h-216v448h-448z" />
<glyph unicode="," horiz-adv-x="598" d="M139 0v319h320v-309q0 -375 -320 -393v160q154 14 154 223h-154z" />
<glyph unicode="-" horiz-adv-x="682" d="M78 385v242h528v-242h-528z" />
<glyph unicode="." horiz-adv-x="598" d="M139 0v319h320v-319h-320z" />
<glyph unicode="/" horiz-adv-x="1194" d="M111 -29l739 1467h233l-741 -1467h-231z" />
<glyph unicode="0" horiz-adv-x="874" d="M70 711q0 430 90 586.5t278 156.5q196 0 282.5 -177t86.5 -566q0 -405 -89.5 -572.5t-281.5 -167.5q-179 0 -272.5 157.5t-93.5 582.5zM344 422q0 -123 21.5 -179.5t72.5 -56.5q53 0 73.5 66.5t20.5 249.5v377q0 218 -17.5 289t-76.5 71q-54 0 -74 -58.5t-20 -195.5v-563 z" />
<glyph unicode="1" horiz-adv-x="874" d="M172 0v215h115v889q-50 -21 -115 -31v209q168 34 297 172h117v-1239h112v-215h-526z" />
<glyph unicode="2" horiz-adv-x="874" d="M47 1057q0 181 98.5 289t264.5 108q168 0 272 -106.5t104 -282.5q0 -111 -37.5 -198t-91 -149.5t-142.5 -145.5q-114 -107 -169.5 -186t-56.5 -187h289v219h215v-418h-742q0 179 34 300.5t84.5 201.5t132.5 178q92 110 135.5 193.5t43.5 207.5q0 164 -90 164 q-98 0 -98 -174q0 -51 6 -98l-250 14q-2 11 -2 70z" />
<glyph unicode="3" horiz-adv-x="874" d="M53 414l252 22q0 -125 6 -169.5t27.5 -69.5t58.5 -25q57 0 78 55t21 199q0 92 -14.5 143t-43 69.5t-86.5 18.5v215q52 0 73.5 6.5t37 27.5t22.5 58.5t7 96.5q0 103 -21.5 147.5t-71.5 44.5q-55 0 -74 -53.5t-20 -167.5l-235 27q21 395 352 395q165 0 262.5 -97t97.5 -286 q0 -115 -40 -185t-128 -116q187 -106 187 -373q0 -195 -100.5 -310.5t-270.5 -115.5q-185 0 -281 101.5t-96 341.5z" />
<glyph unicode="4" horiz-adv-x="874" d="M45 569l418 885h254v-870h84v-174h-84v-195h84v-215h-455v215h103v195h-361q-9 75 -43 159zM244 584h205q0 343 20 501h-27q-75 -256 -198 -501z" />
<glyph unicode="5" horiz-adv-x="874" d="M49 356l244 29q3 -107 25 -159t71 -52q52 0 73 60.5t21 240.5q0 153 -18 203.5t-74 50.5q-81 0 -90 -125l-199 111l35 723h582v-287h-187l-4 88h-200l-17 -365q84 80 191 80q139 0 212.5 -117.5t73.5 -342.5q0 -523 -387 -523q-323 0 -352 385z" />
<glyph unicode="6" horiz-adv-x="874" d="M70 760q0 397 87.5 545.5t280.5 148.5q147 0 241.5 -92t106.5 -256l-270 -21q-2 87 -19 127.5t-59 40.5q-43 0 -60.5 -45t-17.5 -155v-203q64 49 146 49q144 0 224.5 -115t80.5 -323q0 -237 -95.5 -363.5t-273.5 -126.5q-170 0 -250.5 99.5t-101 258.5t-20.5 431z M360 340q0 -94 15.5 -132t62.5 -38q46 0 63 50t17 202q0 166 -18.5 218t-65.5 52q-43 0 -74 -43v-309z" />
<glyph unicode="7" horiz-adv-x="874" d="M49 1044v394h737v-166q-86 -161 -152.5 -434.5t-68.5 -622.5h111v-215h-518v215h104q14 535 275 1022h-295v-193h-193z" />
<glyph unicode="8" horiz-adv-x="874" d="M53 389q0 149 53 237t168 142q-200 91 -200 315q0 166 101 268.5t263 102.5q161 0 262 -103t101 -268q0 -225 -203 -315q116 -54 169.5 -142t53.5 -233q0 -193 -97 -307.5t-286 -114.5q-186 0 -285.5 112.5t-99.5 305.5zM332 1040q0 -101 23 -145.5t79 -44.5q59 0 84 47 t25 150q0 120 -24.5 169.5t-84.5 49.5q-57 0 -79.5 -51.5t-22.5 -174.5zM334 428q0 -153 20 -210.5t84 -57.5q60 0 81.5 61.5t21.5 206.5q0 138 -24.5 197t-80.5 59q-57 0 -79.5 -59t-22.5 -197z" />
<glyph unicode="9" horiz-adv-x="874" d="M63 965q0 250 101 369.5t268 119.5q199 0 286 -154t87 -518v-182q0 -314 -85.5 -471.5t-285.5 -157.5q-146 0 -241 92.5t-107 255.5l270 21q3 -87 20 -127.5t58 -40.5q48 0 64 53t16 215v135q-65 -49 -147 -49q-144 0 -224 114.5t-80 324.5zM354 1004q0 -165 18.5 -218 t67.5 -53q40 0 74 43v299q0 100 -17 140t-61 40q-50 0 -66 -52.5t-16 -198.5z" />
<glyph unicode=":" horiz-adv-x="598" d="M139 0v319h320v-319h-320zM139 684v320h320v-320h-320z" />
<glyph unicode=";" horiz-adv-x="598" d="M139 0v319h320v-309q0 -375 -320 -393v160q154 14 154 223h-154zM139 684v320h320v-320h-320z" />
<glyph unicode="&#x3c;" horiz-adv-x="1366" d="M127 580v192l1112 465v-233l-819 -328l819 -328v-233z" />
<glyph unicode="=" horiz-adv-x="1366" d="M127 332v215h1112v-215h-1112zM127 809v215h1112v-215h-1112z" />
<glyph unicode="&#x3e;" horiz-adv-x="1366" d="M127 115v233l819 328l-819 328v233l1112 -465v-192z" />
<glyph unicode="?" horiz-adv-x="831" d="M41 1016q0 216 98 330t267 114q172 0 279.5 -119.5t107.5 -312.5q0 -161 -75 -275t-210 -114l-10 -156h-168l-27 336q38 -10 66 -10q66 0 95.5 50.5t29.5 160.5q0 128 -20.5 184t-74.5 56q-82 0 -82 -146v-98h-276zM258 0v319h320v-319h-320z" />
<glyph unicode="@" horiz-adv-x="1997" d="M240 489q0 384 217 637.5t594 253.5q325 0 515.5 -206t190.5 -515q0 -195 -77.5 -345t-204.5 -232t-234 -82q-127 0 -156 117q-65 -62 -114 -89.5t-123 -27.5q-150 0 -239 115t-89 311q0 247 124.5 443t305.5 196q143 0 232 -145l16 114h199l-127 -792q-3 -19 -3 -32 q0 -40 36 -40q99 0 203 136.5t104 355.5q0 255 -154.5 413t-402.5 158q-294 0 -480 -204.5t-186 -528.5q0 -314 180 -507.5t471 -193.5q270 0 504 187h211q-122 -158 -315.5 -246t-399.5 -88q-335 0 -566.5 227t-231.5 610zM729 369q0 -101 42 -162.5t110 -61.5 q109 0 175 182t66 380q0 95 -39.5 148.5t-103.5 53.5q-115 0 -182.5 -170.5t-67.5 -369.5z" />
<glyph unicode="A" d="M10 0v215h96l154 1008h-92v215h795v-215h-97l164 -1008h90v-215h-491v215h90l-35 268h-235l-33 -268h88v-215h-494zM473 662h186l-75 598h-39z" />
<glyph unicode="B" horiz-adv-x="1110" d="M47 0v215h103v1008h-103v215h498q216 0 339.5 -96.5t123.5 -280.5q0 -228 -199 -299q225 -99 225 -340q0 -199 -134.5 -310.5t-377.5 -111.5h-475zM492 215q72 0 110 12.5t58 57t20 139.5q0 94 -21.5 140t-58.5 59.5t-108 13.5v-422zM492 834q113 0 143.5 45.5 t30.5 146.5q0 88 -19 133t-54 59.5t-101 14.5v-399z" />
<glyph unicode="C" horiz-adv-x="1004" d="M74 739q0 337 114 529t283 192q117 0 205 -121h4v99h229v-486h-229q-18 267 -129 267q-74 0 -88 -107t-14 -371q0 -322 21.5 -422t96.5 -100q59 0 86.5 70.5t36.5 218.5l262 -78q-23 -214 -134 -333.5t-273 -119.5q-210 0 -340.5 199t-130.5 563z" />
<glyph unicode="D" d="M47 0v215h103v1008h-103v215h498q227 0 366.5 -194.5t139.5 -526.5q0 -321 -129 -519t-377 -198h-498zM492 215q73 0 114 37.5t61.5 147t20.5 325.5q0 217 -24 325t-64.5 140.5t-107.5 32.5v-1008z" />
<glyph unicode="E" horiz-adv-x="1087" d="M47 0v215h125v1008h-125v215h971v-457h-256v242h-248v-381h191v-215h-191v-412h248v254h256v-469h-971z" />
<glyph unicode="F" horiz-adv-x="1087" d="M51 0v215h125v1008h-125v215h983v-457h-256v242h-260v-381h193v-215h-193v-412h137v-215h-604z" />
<glyph unicode="G" horiz-adv-x="1087" d="M74 711q0 356 108 552.5t303 196.5q131 0 224 -129h4v107h229v-490h-229q-3 136 -41.5 203.5t-102.5 67.5q-77 0 -98.5 -88.5t-21.5 -378.5q0 -230 10.5 -341.5t36.5 -151.5t77 -40q122 0 125 238h-96v215h436q0 -199 -27 -319.5t-89 -206.5t-150.5 -127.5t-200.5 -41.5 q-231 0 -364 190.5t-133 543.5z" />
<glyph unicode="H" horiz-adv-x="1217" d="M47 0v215h109v1008h-109v215h508v-215h-57v-361h217v361h-58v215h510v-215h-110v-1008h110v-215h-510v215h58v432h-217v-432h57v-215h-508z" />
<glyph unicode="I" horiz-adv-x="725" d="M49 0v215h139v1008h-139v215h629v-215h-148v-1008h148v-215h-629z" />
<glyph unicode="J" horiz-adv-x="682" d="M8 -190q16 -5 37 -5q125 0 125 170v1248h-127v215h596v-215h-127v-1260q0 -191 -94.5 -306.5t-270.5 -115.5q-73 0 -139 21v248z" />
<glyph unicode="K" horiz-adv-x="1153" d="M47 0v215h105v1008h-105v215h535v-215h-88v-1008h69v-215h-516zM528 754l244 469h-90v215h420v-215h-86l-193 -367l250 -641h88v-215h-497v215h71z" />
<glyph unicode="L" horiz-adv-x="1067" d="M51 0v215h127v1008h-127v215h627v-215h-158v-1008h242v426h256v-641h-967z" />
<glyph unicode="M" horiz-adv-x="1493" d="M66 0v215h98v1008h-98v215h559l88 -566h24l88 566h600v-215h-94v-1008h94v-215h-512v215h76v1030h-22l-230 -1245h-112l-234 1245h-26v-1030h75v-215h-374z" />
<glyph unicode="N" d="M66 0v215h90v1008h-90v215h413q163 -377 289 -860h18q-14 317 -14 364v281h-84v215h377v-215h-78v-1235h-266l-110 288q-73 188 -130.5 355t-109.5 352h-19q19 -249 19 -487v-281h78v-215h-383z" />
<glyph unicode="O" d="M74 719q0 338 133.5 539.5t357.5 201.5q223 0 357.5 -201t134.5 -540t-134.5 -540.5t-357.5 -201.5q-222 0 -356.5 201.5t-134.5 540.5zM449 719q0 -216 9.5 -320.5t34 -142t72.5 -37.5q49 0 73 37.5t34 142t10 320.5t-10 320.5t-34 142t-73 37.5q-48 0 -72.5 -37.5 t-34 -142t-9.5 -320.5z" />
<glyph unicode="P" horiz-adv-x="1110" d="M47 0v215h100v1008h-100v215h463q254 0 395.5 -122t141.5 -339q0 -449 -558 -449v-313h121v-215h-563zM489 748q114 0 154.5 63t40.5 176q0 236 -195 236v-475z" />
<glyph unicode="Q" horiz-adv-x="1110" d="M63 719q0 339 135 540t357 201t357 -201t135 -540q0 -300 -109 -497.5t-303 -233.5v-4q46 -11 128 -58q64 -38 115.5 -57t127.5 -19l-39 -210q-86 0 -149 17t-157 80q-72 49 -112 61t-76 12q-60 0 -127 -39l-84 143q89 66 184 76v4q-180 47 -281.5 242t-101.5 483z M438 719q0 -224 9.5 -327t33 -138t74.5 -35t74.5 35t33 138t9.5 327q0 215 -10.5 320t-34.5 142.5t-72 37.5q-49 0 -73 -37.5t-34 -142t-10 -320.5z" />
<glyph unicode="R" horiz-adv-x="1110" d="M74 0v215h88v1008h-88v215h534q198 0 314 -119.5t116 -302.5q0 -99 -32.5 -165.5t-108.5 -123.5l111 -512h59v-215h-315l-136 631h-112v-416h88v-215h-518zM504 838q125 0 158.5 48t33.5 156q0 92 -31.5 141.5t-160.5 49.5v-395z" />
<glyph unicode="S" horiz-adv-x="897" d="M61 1106q0 151 84 247.5t213 96.5q64 0 112 -19.5t114 -82.5v90h215v-434h-215q0 137 -32 184t-91 47q-43 0 -68.5 -29t-25.5 -78q0 -60 29.5 -105t117.5 -120q198 -170 259 -284t61 -244q0 -167 -92.5 -277t-231.5 -110q-122 0 -221 102v-90h-215v467h215 q0 -164 35 -213t92 -49q51 0 79.5 38t28.5 105q0 54 -32 113t-161 179q-174 160 -222 263t-48 203z" />
<glyph unicode="T" horiz-adv-x="1087" d="M37 907v531h1014v-531h-215v316h-121v-1008h116v-215h-575v215h117v1008h-121v-316h-215z" />
<glyph unicode="U" horiz-adv-x="1067" d="M35 1223v215h512v-215h-60v-877q0 -153 103 -153q112 0 112 167v863h-61v215h391v-215h-114v-871q0 -168 -102 -271.5t-269 -103.5q-196 0 -299 100.5t-103 295.5v850h-110z" />
<glyph unicode="V" horiz-adv-x="1153" d="M14 1223v215h525v-215h-105l164 -686l162 686h-121v215h498v-215h-99l-329 -1246h-275l-317 1246h-103z" />
<glyph unicode="W" horiz-adv-x="1516" d="M18 1223v215h465v-215h-77l135 -590l118 590h-71v215h395v-215h-80l137 -605l125 605h-82v215h414v-215h-74l-266 -1246h-254l-143 629l-131 -629h-256l-279 1246h-76z" />
<glyph unicode="X" horiz-adv-x="1194" d="M39 0v215h84l305 469l-305 539h-84v215h549v-215h-99l146 -258l145 258h-94v215h453v-215h-109l-272 -475l305 -533h94v-215h-569v215h106l-143 254l-166 -254h104v-215h-450z" />
<glyph unicode="Y" horiz-adv-x="1174" d="M27 1223v215h551v-215h-129l176 -430l184 430h-131v215h467v-215h-101l-292 -676v-332h112v-215h-573v215h119v332l-285 676h-98z" />
<glyph unicode="Z" horiz-adv-x="961" d="M51 0v215l498 1008h-252v-240h-215v455h819v-215l-495 -1008h288v258h215v-473h-858z" />
<glyph unicode="[" horiz-adv-x="618" d="M150 -424v1862h425v-183h-126v-1497h126v-182h-425z" />
<glyph unicode="\" horiz-adv-x="1194" d="M111 1438h233l739 -1467h-231z" />
<glyph unicode="]" horiz-adv-x="618" d="M43 -242h127v1497h-127v183h426v-1862h-426v182z" />
<glyph unicode="^" horiz-adv-x="1196" d="M121 662l366 798h224l366 -798h-284l-193 489l-194 -489h-285z" />
<glyph unicode="_" horiz-adv-x="1024" d="M-12 -154h1048v-102h-1048v102z" />
<glyph unicode="`" horiz-adv-x="682" d="M-20 1473h387l194 -379h-176z" />
<glyph unicode="a" horiz-adv-x="1004" d="M78 311q0 144 85 239t216 95q91 0 180 -61v106q0 81 -20.5 114.5t-73.5 33.5q-71 0 -98 -78l-269 55q119 217 404 217q166 0 261 -77t95 -226v-514h94v-215h-393v78q-91 -92 -207 -92q-117 0 -195.5 92t-78.5 233zM377 324q0 -59 24.5 -91t67.5 -32q53 0 90 57v152 q-38 47 -86 47q-44 0 -70 -36.5t-26 -96.5z" />
<glyph unicode="b" horiz-adv-x="981" d="M37 0v215h98v1008h-98v215h397v-525h4q66 107 189 107q131 0 209.5 -126t78.5 -366q0 -262 -75.5 -402t-214.5 -140q-110 0 -191 94v-80h-397zM434 369q0 -85 18.5 -126.5t65.5 -41.5q55 0 70.5 63.5t15.5 237.5q0 157 -17.5 217.5t-70.5 60.5q-47 0 -64.5 -47 t-17.5 -160v-204z" />
<glyph unicode="c" horiz-adv-x="897" d="M70 512q0 228 91.5 368t239.5 140q142 0 191 -125h4v109h215v-406h-215q-7 109 -34.5 161t-82.5 52q-58 0 -78 -68.5t-20 -230.5q0 -177 19.5 -251.5t91.5 -74.5q50 0 73 51t31 160l231 -86q-57 -340 -362 -340q-184 0 -289.5 144t-105.5 397z" />
<glyph unicode="d" horiz-adv-x="981" d="M66 528q0 256 83 374t205 118t189 -107h4v310h-96v215h395v-1223h98v-215h-397v80q-81 -94 -191 -94q-139 0 -214.5 140t-75.5 402zM377 502q0 -174 15.5 -237.5t70.5 -63.5q44 0 64 38.5t20 129.5v204q0 113 -17.5 160t-64.5 47q-52 0 -70 -56.5t-18 -221.5z" />
<glyph unicode="e" horiz-adv-x="874" d="M66 514q0 256 101.5 387t285.5 131q160 0 263 -123t103 -358v-94h-457q0 -167 19.5 -219t73.5 -52q46 0 69 31.5t33 95.5l248 -92q-46 -120 -141 -185t-220 -65q-378 0 -378 543zM362 606h158v49q0 172 -78 172q-46 0 -63 -52.5t-17 -168.5z" />
<glyph unicode="f" horiz-adv-x="618" d="M82 0v215h78v573h-76v216h76v86q0 175 103 272.5t263 97.5q92 0 168 -37.5t113 -103.5l-238 -109q-12 45 -55 45q-31 0 -43 -22.5t-12 -73.5v-155h110v-216h-110v-573h114v-215h-491z" />
<glyph unicode="g" horiz-adv-x="1004" d="M82 498q0 240 72.5 381t203.5 141q109 0 195 -148h4v132h404v-216h-103v-800q0 -204 -113.5 -325.5t-314.5 -121.5q-148 0 -330 70l123 205q105 -45 191 -45q143 0 143 153v182h-4q-67 -122 -197 -122t-202 130t-72 384zM391 387q0 -188 82 -188q84 0 84 149v268 q0 164 -82 164q-84 0 -84 -172v-221z" />
<glyph unicode="h" horiz-adv-x="1067" d="M31 0v215h110v1008h-110v215h409v-496q112 90 217 90q127 0 198 -89t71 -251v-477h100v-215h-399v666q0 74 -19 105.5t-65 31.5q-44 0 -103 -43v-545h88v-215h-497z" />
<glyph unicode="i" horiz-adv-x="618" d="M63 0v215h109v573h-109v216h408v-789h96v-215h-504zM150 1286q0 72 51 123t123 51q71 0 122.5 -51t51.5 -123t-51 -123t-123 -51t-123 51t-51 123z" />
<glyph unicode="j" horiz-adv-x="598" d="M0 -217q72 0 102.5 14t45 52.5t14.5 107.5v831h-115v216h414v-1045q0 -217 -103 -317.5t-270 -100.5q-19 0 -88 4v238zM137 1286q0 72 51 123t123 51t123 -51t51 -123t-51 -123t-123 -51t-123 51t-51 123z" />
<glyph unicode="k" horiz-adv-x="961" d="M47 0v215h92v1008h-92v215h391v-1223h60v-215h-451zM449 506v24l169 277h-71v197h362v-216h-61l-135 -217l166 -356h43v-215h-242z" />
<glyph unicode="l" horiz-adv-x="575" d="M25 0v215h112v1008h-112v215h411v-1223h99v-215h-510z" />
<glyph unicode="m" horiz-adv-x="1579" d="M53 0v215h101v573h-101v216h400v-107h6q99 123 219 123q140 0 217 -135q76 70 137 102.5t129 32.5q119 0 190.5 -93t71.5 -263v-449h107v-215h-406v629q0 86 -20 124t-68 38t-98 -52v-524h84v-215h-383v629q0 87 -20 124.5t-66 37.5q-53 0 -100 -52v-524h84v-215h-484z " />
<glyph unicode="n" horiz-adv-x="1087" d="M53 0v215h111v573h-111v216h410v-107h8q67 123 217 123q116 0 187 -86.5t71 -237.5v-481h101v-215h-400v647q0 80 -18 112t-66 32q-25 0 -43 -9t-57 -39v-528h86v-215h-496z" />
<glyph unicode="o" horiz-adv-x="981" d="M68 502q0 233 118 381.5t306 148.5q184 0 302.5 -148.5t118.5 -381.5q0 -234 -118.5 -382.5t-302.5 -148.5q-186 0 -305 148.5t-119 382.5zM379 502q0 -155 26.5 -228t86.5 -73q110 0 110 301t-110 301q-60 0 -86.5 -73t-26.5 -228z" />
<glyph unicode="p" horiz-adv-x="981" d="M37 -244h98v1032h-98v216h397v-115h4q46 131 183 131q140 0 215 -132t75 -382q0 -253 -75 -387.5t-213 -134.5q-105 0 -189 94v-322h137v-215h-534v215zM434 385q0 -100 19 -143t65 -43q57 0 69.5 68.5t12.5 240.5q0 153 -18 212.5t-66 59.5q-82 0 -82 -178v-217z" />
<glyph unicode="q" horiz-adv-x="981" d="M70 506q0 250 75 382t215 132q137 0 183 -131h4v115h397v-216h-98v-1032h98v-215h-534v215h137v322q-84 -94 -189 -94q-138 0 -213 134.5t-75 387.5zM381 508q0 -172 12.5 -240.5t69.5 -68.5q46 0 65 43t19 143v217q0 178 -82 178q-49 0 -66.5 -62t-17.5 -210z" />
<glyph unicode="r" horiz-adv-x="705" d="M53 0v215h107v573h-107v216h406v-201h4q20 82 51 130.5t69.5 67.5t100.5 19v-336q-225 0 -225 -297v-172h119v-215h-525z" />
<glyph unicode="s" horiz-adv-x="748" d="M55 739q0 126 64.5 203.5t169.5 77.5q92 0 157 -82h5v66h215v-261h-215q-15 105 -84 105q-31 0 -49.5 -19.5t-18.5 -50.5q0 -30 23 -61.5t118 -93.5q78 -50 128 -92.5t86 -109.5t36 -159q0 -126 -64 -202t-169 -76q-65 0 -94 15.5t-56 46.5q-12 14 -18 20h-4v-66h-215 v272h215q9 -108 86 -108q30 0 47.5 19t17.5 50q0 28 -21.5 58t-113.5 92q-156 106 -201 188t-45 168z" />
<glyph unicode="t" horiz-adv-x="618" d="M45 788v216h90v126l299 234v-360h121v-216h-121v-448q0 -67 17 -95t59 -28q21 0 45 10v-223q-94 -33 -182 -33q-238 0 -238 287v530h-90z" />
<glyph unicode="u" horiz-adv-x="1067" d="M37 788v216h399v-648q0 -80 18.5 -111.5t65.5 -31.5q26 0 43.5 8.5t57.5 38.5v528h-86v216h385v-789h110v-215h-409v80q-115 -96 -226 -96q-116 0 -187 86t-71 237v481h-100z" />
<glyph unicode="v" horiz-adv-x="897" d="M14 788v216h412v-216h-57l108 -452l101 452h-54v216h359v-216h-78l-217 -802h-250l-246 802h-78z" />
<glyph unicode="w" horiz-adv-x="1260" d="M12 788v216h402v-216h-66l86 -430l123 646h229l125 -646l78 430h-59v216h317v-216h-61l-176 -802h-252l-117 454l-123 -454h-254l-190 802h-62z" />
<glyph unicode="x" horiz-adv-x="811" d="M29 0v215h63l144 262l-148 311h-59v216h284l101 -289l112 289h228v-216h-62l-141 -258l164 -315h65v-215h-299l-104 309h-4l-107 -309h-237z" />
<glyph unicode="y" horiz-adv-x="918" d="M25 788v216h409v-216h-67l135 -391h4l94 391h-65v216h358v-216h-80l-309 -1243h-297v215h141l43 185l-295 843h-71z" />
<glyph unicode="z" horiz-adv-x="831" d="M45 0v197l440 630h-223v-143h-190v320h708v-193l-440 -635h256v152h190v-328h-741z" />
<glyph unicode="{" horiz-adv-x="797" d="M145 377v248q78 30 106 111t28 249q0 136 15 224.5t55.5 146t108.5 81t193 23.5v-237q-79 -11 -99 -49t-20 -173q0 -236 -48 -353.5t-154 -145.5v-4q106 -29 154 -145.5t48 -352.5q0 -135 20 -173t99 -48v-238q-127 0 -195 24.5t-108 82t-54.5 146t-14.5 222.5 q0 168 -28 249t-106 112z" />
<glyph unicode="|" horiz-adv-x="1204" d="M494 -264v1702h217v-1702h-217z" />
<glyph unicode="}" horiz-adv-x="797" d="M145 -221q80 10 99.5 48t19.5 173q0 236 48 352.5t155 145.5v4q-107 28 -155 145.5t-48 353.5q0 135 -19.5 173t-99.5 49v237q128 0 196 -24.5t107.5 -82t54.5 -145.5t15 -223q0 -168 28 -249t105 -111v-248q-77 -31 -105 -112t-28 -249q0 -135 -15 -223.5t-55.5 -146 t-109 -81.5t-193.5 -24v238z" />
<glyph unicode="~" horiz-adv-x="1343" d="M117 547v223q159 137 315 137q101 0 264 -80q168 -79 238 -79q129 0 293 147v-223q-168 -140 -301 -140q-72 0 -130 21t-169 74q-140 67 -207 67q-143 0 -303 -147z" />
<glyph unicode="&#xa1;" horiz-adv-x="598" d="M139 684v320h320v-320h-320zM145 -23l91 545h124l91 -545v-411h-306v411z" />
<glyph unicode="&#xa2;" horiz-adv-x="897" d="M70 512q0 210 78 346.5t217 157.5v192h145v-215q59 -35 82 -102h4v113h215v-406h-215q-7 109 -34.5 161t-82.5 52q-58 0 -78 -68.5t-20 -230.5q0 -177 19.5 -251.5t91.5 -74.5q50 0 73 51.5t31 159.5l231 -86q-51 -314 -317 -338v-174h-145v183q-144 42 -219.5 182 t-75.5 348z" />
<glyph unicode="&#xa3;" horiz-adv-x="1087" d="M45 213q0 97 55.5 158t143.5 61q78 0 149 -59q-9 97 -59 278h-211v215h166q-21 95 -21 189q0 199 95.5 302t279.5 103q363 0 369 -366l-277 -9q0 103 -19.5 146t-72.5 43q-86 0 -86 -113q0 -64 35 -295h211v-215h-174q10 -61 10 -137q0 -131 -47 -254q77 -63 135 -63 q49 0 68.5 44.5t19.5 147.5v39h215q3 -87 3 -103q0 -354 -255 -354q-149 0 -274 148q-96 -148 -236 -148q-96 0 -159.5 68.5t-63.5 173.5zM176 201q0 -44 23.5 -70.5t62.5 -26.5q91 0 117 119q-61 68 -119 68q-38 0 -61 -24.5t-23 -65.5z" />
<glyph unicode="&#xa4;" horiz-adv-x="1366" d="M158 295l135 131q-76 124 -76 256q0 133 76 242l-135 135l141 143l135 -135q106 74 246 74t252 -74l135 135l141 -143l-135 -135q76 -124 76 -252q0 -134 -76 -246l135 -131l-141 -141l-135 131q-118 -76 -254 -76q-135 0 -244 76l-135 -131zM416 676q0 -111 78 -189.5 t188 -78.5t189 79t79 189t-78.5 188t-189.5 78q-110 0 -188 -78t-78 -188z" />
<glyph unicode="&#xa5;" horiz-adv-x="1174" d="M27 1223v215h551v-215h-129l176 -430l184 430h-131v215h467v-215h-101l-196 -455h295v-145h-359l-32 -76v-35h391v-145h-391v-152h112v-215h-573v215h119v152h-381v145h381v35l-31 76h-350v145h288l-192 455h-98z" />
<glyph unicode="&#xa6;" horiz-adv-x="1204" d="M489 -264v729h218v-729h-218zM489 707v731h218v-731h-218z" />
<glyph unicode="&#xa7;" horiz-adv-x="874" d="M63 524q0 186 170 328q-79 73 -115 139t-36 158q0 144 93.5 227.5t254.5 83.5q333 0 336 -319h-231q0 133 -113 133q-48 0 -78.5 -28t-30.5 -70q0 -44 32 -93.5t164 -155.5q96 -77 156 -136.5t103 -141.5t43 -182q0 -182 -170 -324q152 -143 152 -297q0 -142 -94 -223.5 t-259 -81.5q-146 0 -237.5 72t-91.5 240h233q0 -125 111 -125q47 0 76.5 29.5t29.5 74.5q0 33 -29 74.5t-151 143.5q-201 168 -259.5 272.5t-58.5 201.5zM293 565q0 -63 48 -129t157 -174q84 78 84 166q0 131 -209 301q-80 -81 -80 -164z" />
<glyph unicode="&#xa8;" horiz-adv-x="682" d="M-2 1290q0 54 38.5 91.5t92.5 37.5t91.5 -37.5t37.5 -91.5t-38 -92.5t-91 -38.5t-92 39t-39 92zM426 1290q0 53 38.5 91t92.5 38t91.5 -37.5t37.5 -91.5t-38 -92.5t-91 -38.5t-92 39t-39 92z" />
<glyph unicode="&#xa9;" horiz-adv-x="1511" d="M-10 715q0 205 102.5 383t280 280.5t383.5 102.5q316 0 541 -225t225 -541q0 -317 -225 -541.5t-541 -224.5q-317 0 -541.5 224.5t-224.5 541.5zM141 715q0 -254 180.5 -434.5t434.5 -180.5q253 0 433.5 180.5t180.5 434.5q0 255 -179.5 434.5t-434.5 179.5 q-254 0 -434.5 -180.5t-180.5 -433.5zM381 711q0 198 104.5 314t282.5 116q248 0 334 -244l-162 -39q-52 139 -178 139q-98 0 -152.5 -74t-54.5 -208q0 -132 52 -207.5t141 -75.5q146 0 192 170l162 -55q-82 -258 -336 -258q-174 0 -279.5 115t-105.5 307z" />
<glyph unicode="&#xaa;" horiz-adv-x="662" d="M55 1030q0 88 55.5 143.5t141.5 55.5q59 0 117 -37v65q0 48 -13.5 67t-48.5 19q-48 0 -63 -47l-174 33q76 131 262 131q107 0 168 -45.5t61 -128.5v-317h64v-127h-256v49q-61 -55 -136 -55q-76 0 -127 55t-51 139zM252 1038q0 -75 57 -75q35 0 60 34v90q-27 27 -56 27 q-61 0 -61 -76z" />
<glyph unicode="&#xab;" horiz-adv-x="1087" d="M39 502l274 502h260l-272 -502l272 -502h-260zM522 502l275 502h260l-273 -502l273 -502h-260z" />
<glyph unicode="&#xac;" horiz-adv-x="1366" d="M127 819v215h1112v-702h-215v487h-897z" />
<glyph unicode="&#xad;" horiz-adv-x="682" d="M78 385v242h528v-242h-528z" />
<glyph unicode="&#xae;" horiz-adv-x="1511" d="M-10 715q0 205 102.5 383t280 280.5t383.5 102.5q316 0 541 -225t225 -541q0 -317 -225 -541.5t-541 -224.5q-317 0 -541.5 224.5t-224.5 541.5zM141 715q0 -254 180.5 -434.5t434.5 -180.5q253 0 433.5 180.5t180.5 434.5q0 255 -179.5 434.5t-434.5 179.5 q-254 0 -434.5 -180.5t-180.5 -433.5zM410 305v813h393q122 0 194 -59.5t72 -167.5q0 -91 -58 -152.5t-163 -74.5v-5q53 -12 92.5 -65t177.5 -289h-205q-95 191 -125.5 238.5t-72 71.5t-97.5 24h-43v-334h-165zM575 768h170q68 0 109 30.5t41 82.5q0 108 -170 108h-150v-221 z" />
<glyph unicode="&#xaf;" horiz-adv-x="1024" d="M-12 1592v102h1048v-102h-1048z" />
<glyph unicode="&#xb0;" horiz-adv-x="819" d="M82 1126q0 136 96 232t232 96q134 0 230.5 -96.5t96.5 -231.5q0 -134 -96.5 -230.5t-230.5 -96.5q-135 0 -231.5 96.5t-96.5 230.5zM256 1126q0 -63 45.5 -108t108.5 -45q62 0 107.5 45.5t45.5 107.5q0 63 -45 108.5t-108 45.5t-108.5 -45.5t-45.5 -108.5z" />
<glyph unicode="&#xb1;" horiz-adv-x="1368" d="M127 0v215h1112v-215h-1112zM127 780v215h448v418h216v-418h448v-215h-448v-418h-216v418h-448z" />
<glyph unicode="&#xb2;" horiz-adv-x="512" d="M12 1225q0 107 60.5 168t167.5 61q104 0 168.5 -59.5t64.5 -155.5q0 -59 -29.5 -118.5t-137.5 -150.5q-118 -99 -126 -157h144v113h153v-250h-463q0 117 27 195t125 181q69 73 85.5 114t16.5 81q0 62 -43 62t-43 -70q0 -21 6 -68l-174 9q-2 17 -2 45z" />
<glyph unicode="&#xb3;" horiz-adv-x="512" d="M16 922l177 14q0 -94 7.5 -115.5t35.5 -21.5q29 0 36 24.5t7 91.5q0 43 -8 64.5t-22.5 27t-55.5 5.5v145q46 0 58.5 3.5t18.5 20t6 54.5q0 80 -43 80q-25 0 -32.5 -20t-7.5 -95l-168 17q11 237 223 237q104 0 165.5 -57t61.5 -154q0 -100 -78 -158q86 -71 86 -190 q0 -108 -63 -172t-170 -64q-115 0 -174.5 57.5t-59.5 205.5z" />
<glyph unicode="&#xb4;" horiz-adv-x="682" d="M150 1094l194 379h387l-405 -379h-176z" />
<glyph unicode="&#xb5;" horiz-adv-x="1251" d="M236 -459v1463h299v-660q0 -121 75 -121q54 0 109 60v721h299v-1004h-295v82h-4q-45 -94 -131 -94q-38 0 -58 20v-467h-294z" />
<glyph unicode="&#xb6;" horiz-adv-x="1139" d="M4 1020v6q0 180 115 296t317 116h699v-262h-113v-1635h-242v1635h-141v-1635h-242v1073q-189 15 -291 122.5t-102 283.5z" />
<glyph unicode="&#xb7;" horiz-adv-x="598" d="M139 580v319h320v-319h-320z" />
<glyph unicode="&#xb8;" horiz-adv-x="682" d="M160 -340l10 115q105 0 130.5 21t25.5 52q0 54 -93 68q28 36 46 84q206 -13 206 -168q0 -84 -61 -132t-168 -48q-59 0 -96 8z" />
<glyph unicode="&#xb9;" horiz-adv-x="512" d="M90 676v147h68v412q-33 -10 -68 -14v143q106 17 184 90h84v-631h66v-147h-334z" />
<glyph unicode="&#xba;" horiz-adv-x="641" d="M45 1143q0 140 76.5 228.5t197.5 88.5t198 -88.5t77 -228.5t-77 -229t-198 -89q-120 0 -197 89t-77 229zM246 1143q0 -178 73 -178q42 0 58 40.5t16 137.5q0 103 -18 140.5t-56 37.5q-40 0 -56.5 -43t-16.5 -135z" />
<glyph unicode="&#xbb;" horiz-adv-x="1087" d="M31 0l270 502l-270 502h258l276 -502l-276 -502h-258zM514 0l270 502l-270 502h258l277 -502l-277 -502h-258z" />
<glyph unicode="&#xbc;" horiz-adv-x="1237" d="M90 676v147h68v412q-33 -10 -68 -14v143q106 17 184 90h84v-631h66v-147h-334zM283 -16l567 1470h152l-565 -1470h-154zM733 311l256 467h166v-442h49v-127h-49v-62h49v-147h-291v147h60v62h-209q-7 51 -31 102zM891 336h82q2 127 8 194l-4 5q-37 -110 -86 -199z" />
<glyph unicode="&#xbd;" horiz-adv-x="1237" d="M90 676v147h68v412q-33 -10 -68 -14v143q106 17 184 90h84v-631h66v-147h-334zM258 -16l567 1470h152l-565 -1470h-154zM737 549q0 107 60.5 168t167.5 61q104 0 168.5 -59.5t64.5 -155.5q0 -59 -29.5 -118.5t-137.5 -150.5q-118 -99 -126 -157h144v113h153v-250h-463 q0 117 27 195t125 181q69 73 85.5 114t16.5 81q0 62 -43 62t-43 -70q0 -21 6 -68l-174 9q-2 17 -2 45z" />
<glyph unicode="&#xbe;" horiz-adv-x="1237" d="M16 922l177 14q0 -94 7.5 -115.5t35.5 -21.5q29 0 36 24.5t7 91.5q0 43 -8 64.5t-22.5 27t-55.5 5.5v145q46 0 58.5 3.5t18.5 20t6 54.5q0 80 -43 80q-25 0 -32.5 -20t-7.5 -95l-168 17q11 237 223 237q104 0 165.5 -57t61.5 -154q0 -100 -78 -158q86 -71 86 -190 q0 -108 -63 -172t-170 -64q-115 0 -174.5 57.5t-59.5 205.5zM283 -16l567 1470h152l-565 -1470h-154zM733 311l256 467h166v-442h49v-127h-49v-62h49v-147h-291v147h60v62h-209q-7 51 -31 102zM891 336h82q2 127 8 194l-4 5q-37 -110 -86 -199z" />
<glyph unicode="&#xbf;" horiz-adv-x="831" d="M39 -25q0 161 74.5 275.5t210.5 114.5l10 155h168l26 -336q-37 11 -65 11q-67 0 -96 -50.5t-29 -160.5q0 -128 20.5 -184t73.5 -56q82 0 82 145v99h277q0 -220 -100.5 -332.5t-264.5 -112.5q-173 0 -280 119.5t-107 312.5zM254 684v320h319v-320h-319z" />
<glyph unicode="&#xc0;" d="M10 0v215h96l154 1008h-92v215h795v-215h-97l164 -1008h90v-215h-491v215h90l-35 268h-235l-33 -268h88v-215h-494zM205 1899h387l194 -379h-176zM473 662h186l-75 598h-39z" />
<glyph unicode="&#xc1;" d="M10 0v215h96l154 1008h-92v215h795v-215h-97l164 -1008h90v-215h-491v215h90l-35 268h-235l-33 -268h88v-215h-494zM375 1520l194 379h387l-405 -379h-176zM473 662h186l-75 598h-39z" />
<glyph unicode="&#xc2;" d="M10 0v215h96l154 1008h-92v215h795v-215h-97l164 -1008h90v-215h-491v215h90l-35 268h-235l-33 -268h88v-215h-494zM236 1511l185 388h292l185 -388h-191l-139 197l-141 -197h-191zM473 662h186l-75 598h-39z" />
<glyph unicode="&#xc3;" d="M10 0v215h96l154 1008h-92v215h795v-215h-97l164 -1008h90v-215h-491v215h90l-35 268h-235l-33 -268h88v-215h-494zM223 1573q8 119 70 192.5t145 73.5q47 0 148 -40q85 -34 118 -34q43 0 62 76h143q-12 -121 -73.5 -193.5t-141.5 -72.5q-56 0 -166 45q-73 31 -98 31 q-51 0 -68 -78h-139zM473 662h186l-75 598h-39z" />
<glyph unicode="&#xc4;" d="M10 0v215h96l154 1008h-92v215h795v-215h-97l164 -1008h90v-215h-491v215h90l-35 268h-235l-33 -268h88v-215h-494zM223 1716q0 54 38.5 91.5t92.5 37.5t91.5 -37.5t37.5 -91.5t-38 -92.5t-91 -38.5t-92 39t-39 92zM473 662h186l-75 598h-39zM651 1716q0 53 38.5 91 t92.5 38t91.5 -37.5t37.5 -91.5t-38 -92.5t-91 -38.5t-92 39t-39 92z" />
<glyph unicode="&#xc5;" d="M10 0v215h96l154 1008h-92v215h795v-215h-97l164 -1008h90v-215h-491v215h90l-35 268h-235l-33 -268h88v-215h-494zM358 1720q0 86 61.5 146.5t147.5 60.5t146.5 -60.5t60.5 -146.5t-61 -147.5t-146 -61.5q-86 0 -147.5 62t-61.5 147zM463 1720q0 -43 29.5 -73.5 t72.5 -30.5t73.5 31t30.5 73q0 43 -30.5 73t-73.5 30t-72.5 -30t-29.5 -73zM473 662h186l-75 598h-39z" />
<glyph unicode="&#xc6;" horiz-adv-x="1450" d="M16 0v215h72l176 1008h-67v215h1169v-455h-256v240h-188v-381h157v-215h-157v-412h188v254h256v-469h-856v215h70v412h-193l-70 -412h95v-215h-396zM420 817h160v432h-86z" />
<glyph unicode="&#xc7;" horiz-adv-x="1004" d="M74 739q0 337 114 529t283 192q117 0 205 -121h4v99h229v-486h-229q-18 267 -129 267q-74 0 -88 -107t-14 -371q0 -322 21.5 -422t96.5 -100q59 0 86.5 70.5t36.5 218.5l262 -78q-23 -213 -134 -333t-271 -120v-4q100 -32 100 -141q0 -84 -61.5 -132t-167.5 -48 q-59 0 -96 8l10 115q104 0 129.5 21t25.5 52q0 54 -92 68q21 25 43 78q-172 50 -268 244t-96 501z" />
<glyph unicode="&#xc8;" horiz-adv-x="1087" d="M47 0v215h125v1008h-125v215h971v-457h-256v242h-248v-381h191v-215h-191v-412h248v254h256v-469h-971zM182 1899h387l194 -379h-176z" />
<glyph unicode="&#xc9;" horiz-adv-x="1087" d="M47 0v215h125v1008h-125v215h971v-457h-256v242h-248v-381h191v-215h-191v-412h248v254h256v-469h-971zM352 1520l194 379h387l-405 -379h-176z" />
<glyph unicode="&#xca;" horiz-adv-x="1087" d="M47 0v215h125v1008h-125v215h971v-457h-256v242h-248v-381h191v-215h-191v-412h248v254h256v-469h-971zM213 1511l185 388h292l185 -388h-191l-139 197l-141 -197h-191z" />
<glyph unicode="&#xcb;" horiz-adv-x="1087" d="M47 0v215h125v1008h-125v215h971v-457h-256v242h-248v-381h191v-215h-191v-412h248v254h256v-469h-971zM201 1716q0 54 38.5 91.5t92.5 37.5t91.5 -37.5t37.5 -91.5t-38 -92.5t-91 -38.5t-92 39t-39 92zM629 1716q0 53 38.5 91t92.5 38t91.5 -37.5t37.5 -91.5t-38 -92.5 t-91 -38.5t-92 39t-39 92z" />
<glyph unicode="&#xcc;" horiz-adv-x="725" d="M2 1899h387l194 -379h-176zM49 0v215h139v1008h-139v215h629v-215h-148v-1008h148v-215h-629z" />
<glyph unicode="&#xcd;" horiz-adv-x="725" d="M49 0v215h139v1008h-139v215h629v-215h-148v-1008h148v-215h-629zM172 1520l194 379h387l-405 -379h-176z" />
<glyph unicode="&#xce;" horiz-adv-x="725" d="M33 1511l185 388h292l185 -388h-191l-139 197l-141 -197h-191zM49 0v215h139v1008h-139v215h629v-215h-148v-1008h148v-215h-629z" />
<glyph unicode="&#xcf;" horiz-adv-x="725" d="M20 1716q0 54 38.5 91.5t92.5 37.5t91.5 -37.5t37.5 -91.5t-38 -92.5t-91 -38.5t-92 39t-39 92zM49 0v215h139v1008h-139v215h629v-215h-148v-1008h148v-215h-629zM448 1716q0 53 38.5 91t92.5 38t91.5 -37.5t37.5 -91.5t-38 -92.5t-91 -38.5t-92 39t-39 92z" />
<glyph unicode="&#xd0;" d="M47 0v215h103v395h-103v215h103v398h-103v215h498q227 0 366.5 -194.5t139.5 -526.5q0 -321 -129 -519t-377 -198h-498zM492 215q73 0 114 37.5t61.5 147t20.5 325.5q0 217 -24 325t-64.5 140.5t-107.5 32.5v-398h83v-215h-83v-395z" />
<glyph unicode="&#xd1;" d="M66 0v215h90v1008h-90v215h413q163 -377 289 -860h18q-14 317 -14 364v281h-84v215h377v-215h-78v-1235h-266l-110 288q-73 188 -130.5 355t-109.5 352h-19q19 -249 19 -487v-281h78v-215h-383zM223 1573q8 119 70 192.5t145 73.5q47 0 148 -40q85 -34 118 -34 q43 0 62 76h143q-12 -121 -73.5 -193.5t-141.5 -72.5q-56 0 -166 45q-73 31 -98 31q-51 0 -68 -78h-139z" />
<glyph unicode="&#xd2;" d="M74 719q0 338 133.5 539.5t357.5 201.5q223 0 357.5 -201t134.5 -540t-134.5 -540.5t-357.5 -201.5q-222 0 -356.5 201.5t-134.5 540.5zM205 1899h387l194 -379h-176zM449 719q0 -216 9.5 -320.5t34 -142t72.5 -37.5q49 0 73 37.5t34 142t10 320.5t-10 320.5t-34 142 t-73 37.5q-48 0 -72.5 -37.5t-34 -142t-9.5 -320.5z" />
<glyph unicode="&#xd3;" d="M74 719q0 338 133.5 539.5t357.5 201.5q223 0 357.5 -201t134.5 -540t-134.5 -540.5t-357.5 -201.5q-222 0 -356.5 201.5t-134.5 540.5zM375 1520l194 379h387l-405 -379h-176zM449 719q0 -216 9.5 -320.5t34 -142t72.5 -37.5q49 0 73 37.5t34 142t10 320.5t-10 320.5 t-34 142t-73 37.5q-48 0 -72.5 -37.5t-34 -142t-9.5 -320.5z" />
<glyph unicode="&#xd4;" d="M74 719q0 338 133.5 539.5t357.5 201.5q223 0 357.5 -201t134.5 -540t-134.5 -540.5t-357.5 -201.5q-222 0 -356.5 201.5t-134.5 540.5zM236 1511l185 388h292l185 -388h-191l-139 197l-141 -197h-191zM449 719q0 -216 9.5 -320.5t34 -142t72.5 -37.5q49 0 73 37.5 t34 142t10 320.5t-10 320.5t-34 142t-73 37.5q-48 0 -72.5 -37.5t-34 -142t-9.5 -320.5z" />
<glyph unicode="&#xd5;" d="M74 719q0 338 133.5 539.5t357.5 201.5q223 0 357.5 -201t134.5 -540t-134.5 -540.5t-357.5 -201.5q-222 0 -356.5 201.5t-134.5 540.5zM223 1573q8 119 70 192.5t145 73.5q47 0 148 -40q85 -34 118 -34q43 0 62 76h143q-12 -121 -73.5 -193.5t-141.5 -72.5 q-56 0 -166 45q-73 31 -98 31q-51 0 -68 -78h-139zM449 719q0 -216 9.5 -320.5t34 -142t72.5 -37.5q49 0 73 37.5t34 142t10 320.5t-10 320.5t-34 142t-73 37.5q-48 0 -72.5 -37.5t-34 -142t-9.5 -320.5z" />
<glyph unicode="&#xd6;" d="M74 719q0 338 133.5 539.5t357.5 201.5q223 0 357.5 -201t134.5 -540t-134.5 -540.5t-357.5 -201.5q-222 0 -356.5 201.5t-134.5 540.5zM223 1716q0 54 38.5 91.5t92.5 37.5t91.5 -37.5t37.5 -91.5t-38 -92.5t-91 -38.5t-92 39t-39 92zM449 719q0 -216 9.5 -320.5 t34 -142t72.5 -37.5q49 0 73 37.5t34 142t10 320.5t-10 320.5t-34 142t-73 37.5q-48 0 -72.5 -37.5t-34 -142t-9.5 -320.5zM651 1716q0 53 38.5 91t92.5 38t91.5 -37.5t37.5 -91.5t-38 -92.5t-91 -38.5t-92 39t-39 92z" />
<glyph unicode="&#xd7;" horiz-adv-x="1366" d="M158 303l372 373l-372 373l151 151l371 -371l371 371l155 -151l-372 -373l370 -371l-151 -151l-371 370l-373 -372z" />
<glyph unicode="&#xd8;" d="M74 61l100 172q-100 204 -100 486q0 338 133.5 539.5t357.5 201.5q152 0 273 -102l69 102l150 -90l-105 -162q105 -203 105 -489q0 -339 -134.5 -540.5t-357.5 -201.5q-150 0 -274 105l-62 -111zM449 700h4l215 369q-9 77 -32 113.5t-71 36.5t-72.5 -37.5t-34 -142 t-9.5 -320.5v-19zM461 371q8 -77 29 -114.5t75 -37.5q72 0 94.5 96.5t22.5 403.5v26h-4z" />
<glyph unicode="&#xd9;" horiz-adv-x="1067" d="M35 1223v215h512v-215h-60v-877q0 -153 103 -153q112 0 112 167v863h-61v215h391v-215h-114v-871q0 -168 -102 -271.5t-269 -103.5q-196 0 -299 100.5t-103 295.5v850h-110zM172 1899h387l194 -379h-176z" />
<glyph unicode="&#xda;" horiz-adv-x="1067" d="M35 1223v215h512v-215h-60v-877q0 -153 103 -153q112 0 112 167v863h-61v215h391v-215h-114v-871q0 -168 -102 -271.5t-269 -103.5q-196 0 -299 100.5t-103 295.5v850h-110zM342 1520l194 379h387l-405 -379h-176z" />
<glyph unicode="&#xdb;" horiz-adv-x="1067" d="M35 1223v215h512v-215h-60v-877q0 -153 103 -153q112 0 112 167v863h-61v215h391v-215h-114v-871q0 -168 -102 -271.5t-269 -103.5q-196 0 -299 100.5t-103 295.5v850h-110zM203 1511l185 388h292l185 -388h-191l-139 197l-141 -197h-191z" />
<glyph unicode="&#xdc;" horiz-adv-x="1067" d="M35 1223v215h512v-215h-60v-877q0 -153 103 -153q112 0 112 167v863h-61v215h391v-215h-114v-871q0 -168 -102 -271.5t-269 -103.5q-196 0 -299 100.5t-103 295.5v850h-110zM190 1716q0 54 38.5 91.5t92.5 37.5t91.5 -37.5t37.5 -91.5t-38 -92.5t-91 -38.5t-92 39t-39 92 zM618 1716q0 53 38.5 91t92.5 38t91.5 -37.5t37.5 -91.5t-38 -92.5t-91 -38.5t-92 39t-39 92z" />
<glyph unicode="&#xdd;" horiz-adv-x="1174" d="M27 1223v215h551v-215h-129l176 -430l184 430h-131v215h467v-215h-101l-292 -676v-332h112v-215h-573v215h119v332l-285 676h-98zM395 1520l194 379h387l-405 -379h-176z" />
<glyph unicode="&#xde;" horiz-adv-x="1110" d="M47 0v188h100v1061h-100v189h543v-189h-101v-78h41q230 0 373.5 -120.5t143.5 -339.5q0 -158 -62.5 -252.5t-153 -135.5t-161 -49t-181.5 -8v-78h101v-188h-543zM489 481q105 0 150 58.5t45 181.5q0 235 -195 235v-475z" />
<glyph unicode="&#xdf;" horiz-adv-x="981" d="M25 0v215h114v807q0 438 383 438q185 0 281 -84t96 -246q0 -229 -160 -286q94 -45 136.5 -137t42.5 -263q0 -236 -62 -347t-203 -111q-55 0 -118 24v217q43 4 57 34t14 212q0 106 -22.5 148.5t-83.5 42.5v262q49 0 68.5 40.5t19.5 137.5q0 76 -17 108.5t-59 32.5 q-40 0 -57 -29t-17 -96v-905h33v-215h-446z" />
<glyph unicode="&#xe0;" horiz-adv-x="1004" d="M78 311q0 144 85 239t216 95q91 0 180 -61v106q0 81 -20.5 114.5t-73.5 33.5q-71 0 -98 -78l-269 55q119 217 404 217q166 0 261 -77t95 -226v-514h94v-215h-393v78q-91 -92 -207 -92q-117 0 -195.5 92t-78.5 233zM141 1473h387l194 -379h-176zM377 324q0 -59 24.5 -91 t67.5 -32q53 0 90 57v152q-38 47 -86 47q-44 0 -70 -36.5t-26 -96.5z" />
<glyph unicode="&#xe1;" horiz-adv-x="1004" d="M78 311q0 144 85 239t216 95q91 0 180 -61v106q0 81 -20.5 114.5t-73.5 33.5q-71 0 -98 -78l-269 55q119 217 404 217q166 0 261 -77t95 -226v-514h94v-215h-393v78q-91 -92 -207 -92q-117 0 -195.5 92t-78.5 233zM311 1094l194 379h387l-405 -379h-176zM377 324 q0 -59 24.5 -91t67.5 -32q53 0 90 57v152q-38 47 -86 47q-44 0 -70 -36.5t-26 -96.5z" />
<glyph unicode="&#xe2;" horiz-adv-x="1004" d="M78 311q0 144 85 239t216 95q91 0 180 -61v106q0 81 -20.5 114.5t-73.5 33.5q-71 0 -98 -78l-269 55q119 217 404 217q166 0 261 -77t95 -226v-514h94v-215h-393v78q-91 -92 -207 -92q-117 0 -195.5 92t-78.5 233zM172 1085l185 388h292l185 -388h-191l-139 197 l-141 -197h-191zM377 324q0 -59 24.5 -91t67.5 -32q53 0 90 57v152q-38 47 -86 47q-44 0 -70 -36.5t-26 -96.5z" />
<glyph unicode="&#xe3;" horiz-adv-x="1004" d="M78 311q0 144 85 239t216 95q91 0 180 -61v106q0 81 -20.5 114.5t-73.5 33.5q-71 0 -98 -78l-269 55q119 217 404 217q166 0 261 -77t95 -226v-514h94v-215h-393v78q-91 -92 -207 -92q-117 0 -195.5 92t-78.5 233zM160 1147q8 119 70 192.5t145 73.5q47 0 148 -40 q85 -34 118 -34q43 0 62 76h143q-12 -121 -73.5 -193.5t-141.5 -72.5q-56 0 -166 45q-73 31 -98 31q-51 0 -68 -78h-139zM377 324q0 -59 24.5 -91t67.5 -32q53 0 90 57v152q-38 47 -86 47q-44 0 -70 -36.5t-26 -96.5z" />
<glyph unicode="&#xe4;" horiz-adv-x="1004" d="M78 311q0 144 85 239t216 95q91 0 180 -61v106q0 81 -20.5 114.5t-73.5 33.5q-71 0 -98 -78l-269 55q119 217 404 217q166 0 261 -77t95 -226v-514h94v-215h-393v78q-91 -92 -207 -92q-117 0 -195.5 92t-78.5 233zM160 1290q0 54 38.5 91.5t92.5 37.5t91.5 -37.5 t37.5 -91.5t-38 -92.5t-91 -38.5t-92 39t-39 92zM377 324q0 -59 24.5 -91t67.5 -32q53 0 90 57v152q-38 47 -86 47q-44 0 -70 -36.5t-26 -96.5zM588 1290q0 53 38.5 91t92.5 38t91.5 -37.5t37.5 -91.5t-38 -92.5t-91 -38.5t-92 39t-39 92z" />
<glyph unicode="&#xe5;" horiz-adv-x="1004" d="M78 311q0 144 85 239t216 95q91 0 180 -61v106q0 81 -20.5 114.5t-73.5 33.5q-71 0 -98 -78l-269 55q119 217 404 217q166 0 261 -77t95 -226v-514h94v-215h-393v78q-91 -92 -207 -92q-117 0 -195.5 92t-78.5 233zM295 1294q0 86 61.5 146.5t147.5 60.5t146.5 -60.5 t60.5 -146.5t-61 -147.5t-146 -61.5q-86 0 -147.5 62t-61.5 147zM377 324q0 -59 24.5 -91t67.5 -32q53 0 90 57v152q-38 47 -86 47q-44 0 -70 -36.5t-26 -96.5zM400 1294q0 -43 29.5 -73.5t72.5 -30.5t73.5 31t30.5 73q0 43 -30.5 73t-73.5 30t-72.5 -30t-29.5 -73z" />
<glyph unicode="&#xe6;" horiz-adv-x="1386" d="M86 299q0 155 83.5 247.5t221.5 92.5q90 0 172 -64v136q0 68 -22 97.5t-74 29.5q-71 0 -94 -82l-269 53q116 223 400 223q126 0 239 -59q97 59 203 59q73 0 141.5 -25.5t125.5 -92t83.5 -171.5t26.5 -286h-461q0 -180 21 -225.5t71 -45.5q49 0 71.5 30.5t33.5 96.5 l248 -92q-100 -250 -363 -250q-203 0 -295 162q-148 -162 -287 -162q-122 0 -199 91t-77 237zM377 326q0 -64 26 -102t70 -38q41 0 90 52v170q-44 43 -86 43q-47 0 -73.5 -33.5t-26.5 -91.5zM862 606h162q0 135 -15.5 178t-62.5 43q-48 0 -66 -42.5t-18 -178.5z" />
<glyph unicode="&#xe7;" horiz-adv-x="897" d="M70 512q0 228 91.5 368t239.5 140q142 0 191 -125h4v109h215v-406h-215q-7 109 -34.5 161t-82.5 52q-58 0 -78 -68.5t-20 -230.5q0 -177 19.5 -251.5t91.5 -74.5q50 0 73 51t31 160l231 -86q-55 -324 -323 -338v-4q90 -29 90 -137q0 -84 -61.5 -132t-167.5 -48 q-60 0 -97 8l11 115q104 0 129.5 21t25.5 52q0 54 -92 68q20 24 37 64q-149 35 -229 174.5t-80 357.5z" />
<glyph unicode="&#xe8;" horiz-adv-x="874" d="M66 514q0 256 101.5 387t285.5 131q160 0 263 -123t103 -358v-94h-457q0 -167 19.5 -219t73.5 -52q46 0 69 31.5t33 95.5l248 -92q-46 -120 -141 -185t-220 -65q-378 0 -378 543zM76 1473h387l194 -379h-176zM362 606h158v49q0 172 -78 172q-46 0 -63 -52.5t-17 -168.5z " />
<glyph unicode="&#xe9;" horiz-adv-x="874" d="M66 514q0 256 101.5 387t285.5 131q160 0 263 -123t103 -358v-94h-457q0 -167 19.5 -219t73.5 -52q46 0 69 31.5t33 95.5l248 -92q-46 -120 -141 -185t-220 -65q-378 0 -378 543zM246 1094l194 379h387l-405 -379h-176zM362 606h158v49q0 172 -78 172q-46 0 -63 -52.5 t-17 -168.5z" />
<glyph unicode="&#xea;" horiz-adv-x="874" d="M66 514q0 256 101.5 387t285.5 131q160 0 263 -123t103 -358v-94h-457q0 -167 19.5 -219t73.5 -52q46 0 69 31.5t33 95.5l248 -92q-46 -120 -141 -185t-220 -65q-378 0 -378 543zM106 1085l185 388h292l185 -388h-191l-139 197l-141 -197h-191zM362 606h158v49 q0 172 -78 172q-46 0 -63 -52.5t-17 -168.5z" />
<glyph unicode="&#xeb;" horiz-adv-x="874" d="M66 514q0 256 101.5 387t285.5 131q160 0 263 -123t103 -358v-94h-457q0 -167 19.5 -219t73.5 -52q46 0 69 31.5t33 95.5l248 -92q-46 -120 -141 -185t-220 -65q-378 0 -378 543zM109 1290q0 54 38.5 91.5t92.5 37.5t91.5 -37.5t37.5 -91.5t-38 -92.5t-91 -38.5t-92 39 t-39 92zM362 606h158v49q0 172 -78 172q-46 0 -63 -52.5t-17 -168.5zM537 1290q0 53 38.5 91t92.5 38t91.5 -37.5t37.5 -91.5t-38 -92.5t-91 -38.5t-92 39t-39 92z" />
<glyph unicode="&#xec;" horiz-adv-x="618" d="M-51 1473h387l194 -379h-176zM63 0v215h109v573h-109v216h408v-789h96v-215h-504z" />
<glyph unicode="&#xed;" horiz-adv-x="618" d="M63 0v215h109v573h-109v216h408v-789h96v-215h-504zM119 1094l194 379h387l-405 -379h-176z" />
<glyph unicode="&#xee;" horiz-adv-x="618" d="M-20 1085l185 388h292l185 -388h-191l-139 197l-141 -197h-191zM63 0v215h109v573h-109v216h408v-789h96v-215h-504z" />
<glyph unicode="&#xef;" horiz-adv-x="618" d="M-33 1290q0 54 38.5 91.5t92.5 37.5t91.5 -37.5t37.5 -91.5t-38 -92.5t-91 -38.5t-92 39t-39 92zM63 0v215h109v573h-109v216h408v-789h96v-215h-504zM395 1290q0 53 38.5 91t92.5 38t91.5 -37.5t37.5 -91.5t-38 -92.5t-91 -38.5t-92 39t-39 92z" />
<glyph unicode="&#xf0;" horiz-adv-x="981" d="M68 483q0 238 107.5 393.5t258.5 155.5q92 0 146 -45l4 4q-34 128 -90 205l-191 -92l-90 80l211 100q-62 69 -141 113l155 63q86 -32 166 -90l189 90l88 -78l-191 -92q223 -220 223 -696q0 -307 -115.5 -465t-312.5 -158q-177 0 -297 146.5t-120 365.5zM379 502 q0 -155 26.5 -228t86.5 -73q110 0 110 301t-110 301q-60 0 -86.5 -73t-26.5 -228z" />
<glyph unicode="&#xf1;" horiz-adv-x="1087" d="M53 0v215h111v573h-111v216h410v-107h8q67 123 217 123q116 0 187 -86.5t71 -237.5v-481h101v-215h-400v647q0 80 -18 112t-66 32q-25 0 -43 -9t-57 -39v-528h86v-215h-496zM201 1147q8 119 70 192.5t145 73.5q47 0 148 -40q85 -34 118 -34q43 0 62 76h143 q-12 -121 -73.5 -193.5t-141.5 -72.5q-56 0 -166 45q-73 31 -98 31q-51 0 -68 -78h-139z" />
<glyph unicode="&#xf2;" horiz-adv-x="981" d="M68 502q0 233 118 381.5t306 148.5q184 0 302.5 -148.5t118.5 -381.5q0 -234 -118.5 -382.5t-302.5 -148.5q-186 0 -305 148.5t-119 382.5zM129 1473h387l194 -379h-176zM379 502q0 -155 26.5 -228t86.5 -73q110 0 110 301t-110 301q-60 0 -86.5 -73t-26.5 -228z" />
<glyph unicode="&#xf3;" horiz-adv-x="981" d="M68 502q0 233 118 381.5t306 148.5q184 0 302.5 -148.5t118.5 -381.5q0 -234 -118.5 -382.5t-302.5 -148.5q-186 0 -305 148.5t-119 382.5zM299 1094l194 379h387l-405 -379h-176zM379 502q0 -155 26.5 -228t86.5 -73q110 0 110 301t-110 301q-60 0 -86.5 -73t-26.5 -228 z" />
<glyph unicode="&#xf4;" horiz-adv-x="981" d="M68 502q0 233 118 381.5t306 148.5q184 0 302.5 -148.5t118.5 -381.5q0 -234 -118.5 -382.5t-302.5 -148.5q-186 0 -305 148.5t-119 382.5zM160 1085l185 388h292l185 -388h-191l-139 197l-141 -197h-191zM379 502q0 -155 26.5 -228t86.5 -73q110 0 110 301t-110 301 q-60 0 -86.5 -73t-26.5 -228z" />
<glyph unicode="&#xf5;" horiz-adv-x="981" d="M68 502q0 233 118 381.5t306 148.5q184 0 302.5 -148.5t118.5 -381.5q0 -234 -118.5 -382.5t-302.5 -148.5q-186 0 -305 148.5t-119 382.5zM147 1147q8 119 70 192.5t145 73.5q47 0 148 -40q85 -34 118 -34q43 0 62 76h143q-12 -121 -73.5 -193.5t-141.5 -72.5 q-56 0 -166 45q-73 31 -98 31q-51 0 -68 -78h-139zM379 502q0 -155 26.5 -228t86.5 -73q110 0 110 301t-110 301q-60 0 -86.5 -73t-26.5 -228z" />
<glyph unicode="&#xf6;" horiz-adv-x="981" d="M68 502q0 233 118 381.5t306 148.5q184 0 302.5 -148.5t118.5 -381.5q0 -234 -118.5 -382.5t-302.5 -148.5q-186 0 -305 148.5t-119 382.5zM150 1290q0 54 38.5 91.5t92.5 37.5t91.5 -37.5t37.5 -91.5t-38 -92.5t-91 -38.5t-92 39t-39 92zM379 502q0 -155 26.5 -228 t86.5 -73q110 0 110 301t-110 301q-60 0 -86.5 -73t-26.5 -228zM578 1290q0 53 38.5 91t92.5 38t91.5 -37.5t37.5 -91.5t-38 -92.5t-91 -38.5t-92 39t-39 92z" />
<glyph unicode="&#xf7;" horiz-adv-x="1368" d="M127 569v215h1112v-215h-1112zM553 264q0 54 37.5 91.5t91.5 37.5q53 0 91 -37.5t38 -91.5q0 -53 -38 -91t-91 -38q-54 0 -91.5 38t-37.5 91zM553 1090q0 53 37.5 91t91.5 38q53 0 91 -38t38 -91q0 -54 -37.5 -91.5t-91.5 -37.5t-91.5 37.5t-37.5 91.5z" />
<glyph unicode="&#xf8;" horiz-adv-x="981" d="M68 502q0 233 118 381.5t306 148.5q143 0 241 -86l58 86l122 -84l-82 -117q82 -137 82 -329q0 -234 -118.5 -382.5t-302.5 -148.5q-138 0 -240 82l-64 -82l-118 88l84 109q-37 49 -61.5 144t-24.5 190zM379 471h4l190 260q-24 72 -81 72q-60 0 -86.5 -73t-26.5 -228v-31z M410 264q25 -63 82 -63q110 0 110 301v22h-4z" />
<glyph unicode="&#xf9;" horiz-adv-x="1067" d="M37 788v216h399v-648q0 -80 18.5 -111.5t65.5 -31.5q26 0 43.5 8.5t57.5 38.5v528h-86v216h385v-789h110v-215h-409v80q-115 -96 -226 -96q-116 0 -187 86t-71 237v481h-100zM172 1473h387l194 -379h-176z" />
<glyph unicode="&#xfa;" horiz-adv-x="1067" d="M37 788v216h399v-648q0 -80 18.5 -111.5t65.5 -31.5q26 0 43.5 8.5t57.5 38.5v528h-86v216h385v-789h110v-215h-409v80q-115 -96 -226 -96q-116 0 -187 86t-71 237v481h-100zM342 1094l194 379h387l-405 -379h-176z" />
<glyph unicode="&#xfb;" horiz-adv-x="1067" d="M37 788v216h399v-648q0 -80 18.5 -111.5t65.5 -31.5q26 0 43.5 8.5t57.5 38.5v528h-86v216h385v-789h110v-215h-409v80q-115 -96 -226 -96q-116 0 -187 86t-71 237v481h-100zM203 1085l185 388h292l185 -388h-191l-139 197l-141 -197h-191z" />
<glyph unicode="&#xfc;" horiz-adv-x="1067" d="M37 788v216h399v-648q0 -80 18.5 -111.5t65.5 -31.5q26 0 43.5 8.5t57.5 38.5v528h-86v216h385v-789h110v-215h-409v80q-115 -96 -226 -96q-116 0 -187 86t-71 237v481h-100zM190 1290q0 54 38.5 91.5t92.5 37.5t91.5 -37.5t37.5 -91.5t-38 -92.5t-91 -38.5t-92 39 t-39 92zM618 1290q0 53 38.5 91t92.5 38t91.5 -37.5t37.5 -91.5t-38 -92.5t-91 -38.5t-92 39t-39 92z" />
<glyph unicode="&#xfd;" horiz-adv-x="918" d="M25 788v216h409v-216h-67l135 -391h4l94 391h-65v216h358v-216h-80l-309 -1243h-297v215h141l43 185l-295 843h-71zM268 1094l194 379h387l-405 -379h-176z" />
<glyph unicode="&#xfe;" horiz-adv-x="981" d="M37 -244h98v1467h-98v215h397v-535h4q66 117 180 117q141 0 217 -132.5t76 -381.5q0 -253 -75 -387.5t-213 -134.5q-105 0 -189 94v-322h137v-215h-534v215zM434 385q0 -100 19 -143t65 -43q57 0 69.5 68.5t12.5 240.5q0 153 -18 212.5t-66 59.5q-82 0 -82 -178v-217z " />
<glyph unicode="&#xff;" horiz-adv-x="918" d="M25 788v216h409v-216h-67l135 -391h4l94 391h-65v216h358v-216h-80l-309 -1243h-297v215h141l43 185l-295 843h-71zM117 1290q0 54 38.5 91.5t92.5 37.5t91.5 -37.5t37.5 -91.5t-38 -92.5t-91 -38.5t-92 39t-39 92zM545 1290q0 53 38.5 91t92.5 38t91.5 -37.5t37.5 -91.5 t-38 -92.5t-91 -38.5t-92 39t-39 92z" />
<glyph unicode="&#x152;" horiz-adv-x="1493" d="M74 682q0 756 600 756h743v-459h-256v244h-186v-381h155v-215h-155v-412h186v256h256v-471h-747q-287 0 -441.5 179t-154.5 503zM449 741q0 -199 11 -300.5t50 -157t123 -68.5v1008q-105 -15 -144.5 -104.5t-39.5 -377.5z" />
<glyph unicode="&#x153;" horiz-adv-x="1366" d="M63 506q0 239 111 382.5t293 143.5q135 0 231 -82q98 82 230 82q82 0 151 -29t121 -97.5t74 -171t22 -277.5h-456v-107q0 -94 20.5 -129t71.5 -35q41 0 64.5 29t39.5 96l244 -96q-98 -244 -358 -244q-142 0 -232 80q-99 -80 -221 -80q-185 0 -295.5 144.5t-110.5 390.5z M375 475q0 -144 17 -209t69 -65q47 0 64.5 61.5t17.5 251.5q0 157 -17 223t-69 66q-48 0 -65 -67.5t-17 -260.5zM838 606h161q0 122 -14 171.5t-63 49.5q-52 0 -68 -45.5t-16 -175.5z" />
<glyph unicode="&#x178;" horiz-adv-x="1174" d="M27 1223v215h551v-215h-129l176 -430l184 430h-131v215h467v-215h-101l-292 -676v-332h112v-215h-573v215h119v332l-285 676h-98zM244 1716q0 54 38.5 91.5t92.5 37.5t91.5 -37.5t37.5 -91.5t-38 -92.5t-91 -38.5t-92 39t-39 92zM672 1716q0 53 38.5 91t92.5 38 t91.5 -37.5t37.5 -91.5t-38 -92.5t-91 -38.5t-92 39t-39 92z" />
<glyph unicode="&#x2c6;" horiz-adv-x="682" d="M10 1085l185 388h292l185 -388h-191l-139 197l-141 -197h-191z" />
<glyph unicode="&#x2dc;" horiz-adv-x="682" d="M-2 1147q8 119 70 192.5t145 73.5q47 0 148 -40q85 -34 118 -34q43 0 62 76h143q-12 -121 -73.5 -193.5t-141.5 -72.5q-56 0 -166 45q-73 31 -98 31q-51 0 -68 -78h-139z" />
<glyph unicode="&#x2000;" horiz-adv-x="963" />
<glyph unicode="&#x2001;" horiz-adv-x="1927" />
<glyph unicode="&#x2002;" horiz-adv-x="963" />
<glyph unicode="&#x2003;" horiz-adv-x="1927" />
<glyph unicode="&#x2004;" horiz-adv-x="642" />
<glyph unicode="&#x2005;" horiz-adv-x="481" />
<glyph unicode="&#x2006;" horiz-adv-x="321" />
<glyph unicode="&#x2007;" horiz-adv-x="321" />
<glyph unicode="&#x2008;" horiz-adv-x="240" />
<glyph unicode="&#x2009;" horiz-adv-x="385" />
<glyph unicode="&#x200a;" horiz-adv-x="107" />
<glyph unicode="&#x2010;" horiz-adv-x="682" d="M78 385v242h528v-242h-528z" />
<glyph unicode="&#x2011;" horiz-adv-x="682" d="M78 385v242h528v-242h-528z" />
<glyph unicode="&#x2012;" horiz-adv-x="682" d="M78 385v242h528v-242h-528z" />
<glyph unicode="&#x2013;" horiz-adv-x="1024" d="M-12 420v184h1048v-184h-1048z" />
<glyph unicode="&#x2014;" horiz-adv-x="2048" d="M-12 420v184h2072v-184h-2072z" />
<glyph unicode="&#x2018;" horiz-adv-x="598" d="M139 735v309q0 376 320 394v-160q-154 -14 -154 -223h154v-320h-320z" />
<glyph unicode="&#x2019;" horiz-adv-x="598" d="M139 735v160q154 14 154 223h-154v320h320v-310q0 -375 -320 -393z" />
<glyph unicode="&#x201a;" horiz-adv-x="598" d="M139 0v319h320v-309q0 -375 -320 -393v160q154 14 154 223h-154z" />
<glyph unicode="&#x201c;" horiz-adv-x="1067" d="M135 735v309q0 376 320 394v-160q-154 -14 -154 -223h154v-320h-320zM612 735v309q0 376 320 394v-160q-154 -14 -154 -223h154v-320h-320z" />
<glyph unicode="&#x201d;" horiz-adv-x="1067" d="M135 735v160q154 14 154 223h-154v320h320v-310q0 -375 -320 -393zM612 735v160q154 14 154 223h-154v320h320v-310q0 -375 -320 -393z" />
<glyph unicode="&#x201e;" horiz-adv-x="1067" d="M135 0v319h320v-309q0 -375 -320 -393v160q154 14 154 223h-154zM612 0v319h320v-309q0 -375 -320 -393v160q154 14 154 223h-154z" />
<glyph unicode="&#x2022;" horiz-adv-x="717" d="M74 678q0 118 84 201.5t202 83.5t201.5 -83.5t83.5 -201.5q0 -119 -83 -203t-202 -84q-117 0 -201.5 84.5t-84.5 202.5z" />
<glyph unicode="&#x2026;" horiz-adv-x="2048" d="M182 0v319h320v-319h-320zM864 0v319h320v-319h-320zM1546 0v319h320v-319h-320z" />
<glyph unicode="&#x202f;" horiz-adv-x="385" />
<glyph unicode="&#x2039;" horiz-adv-x="598" d="M35 502l274 502h260l-272 -502l272 -502h-260z" />
<glyph unicode="&#x203a;" horiz-adv-x="598" d="M29 0l270 502l-270 502h258l276 -502l-276 -502h-258z" />
<glyph unicode="&#x205f;" horiz-adv-x="481" />
<glyph unicode="&#x20ac;" horiz-adv-x="874" d="M25 512v145h77v111h-77v145h84q22 266 106 403.5t207 137.5q71 0 109.5 -26.5t68.5 -67.5h2v78h184v-424h-186q-18 225 -108 225q-55 0 -75 -82t-24 -244h207v-145h-209v-111h209v-145h-205q5 -164 28.5 -245t82.5 -81q46 0 67.5 55.5t30.5 182.5l219 -27 q-19 -209 -106.5 -317.5t-231.5 -108.5q-152 0 -248 136.5t-124 404.5h-88z" />
<glyph unicode="&#x2122;" horiz-adv-x="2048" d="M197 1294v144h665v-144h-246v-676h-165v676h-254zM958 618v820h261l147 -566h4l148 566h260v-820h-158v654h-4l-174 -654h-150l-172 654h-4v-654h-158z" />
<glyph unicode="&#xe000;" horiz-adv-x="1004" d="M0 0v1005h1005v-1005h-1005z" />
<glyph unicode="&#xfb01;" horiz-adv-x="1087" d="M41 0v215h100v573h-100v216h100v65q0 180 112.5 285.5t293.5 105.5q269 0 379 -264l-299 -96q-3 75 -23 110t-69 35q-52 0 -73.5 -39t-21.5 -129v-73h486v-789h106v-215h-446v215h41v573h-187v-573h43v-215h-442z" />
<glyph unicode="&#xfb02;" horiz-adv-x="1067" d="M39 0v215h100v573h-100v216h100v63q0 176 117 284.5t287 108.5q26 0 48.5 -2t45.5 -8l49 -12h238v-1223h104v-215h-446v215h43v573h-187v-573h43v-215h-442zM438 1004h187v73q0 88 -21 128t-69 40q-52 0 -74.5 -40t-22.5 -128v-73z" />
</font>
</defs>
</svg>
