<?xml version="1.0" standalone="no"?>
<!DOCTYPE svg PUBLIC "-//W3C//DTD SVG 1.1//EN" "http://www.w3.org/Graphics/SVG/1.1/DTD/svg11.dtd" >
<svg xmlns="http://www.w3.org/2000/svg">
<metadata></metadata>
<defs>
<font id="rockwell_condensedregular" horiz-adv-x="705" >
<font-face units-per-em="2048" ascent="1638" descent="-410" />
<missing-glyph horiz-adv-x="682" />
<glyph horiz-adv-x="2048" />
<glyph horiz-adv-x="2048" />
<glyph unicode="&#xd;" horiz-adv-x="682" />
<glyph unicode=" "  horiz-adv-x="682" />
<glyph unicode="&#x09;" horiz-adv-x="682" />
<glyph unicode="&#xa0;" horiz-adv-x="682" />
<glyph unicode="!" horiz-adv-x="342" d="M68 0v248h206v-248h-206zM68 1034v473h206v-473l-49 -635h-106z" />
<glyph unicode="&#x22;" horiz-adv-x="727" d="M78 1257v250h198v-250l-63 -333h-72zM451 1257v250h198v-250l-63 -333h-72z" />
<glyph unicode="#" horiz-adv-x="1368" d="M84 381v143h217l72 348h-289v144h319l82 397h148l-82 -397h397l82 397h148l-82 -397h184v-144h-215l-72 -348h287v-143h-317l-82 -397h-148l82 397h-397l-82 -397h-148l82 397h-186zM449 524h397l72 348h-398z" />
<glyph unicode="$" horiz-adv-x="918" d="M63 379h199q17 -152 129 -186v469q-161 152 -244.5 274.5t-83.5 239.5q0 135 88.5 227.5t239.5 103.5v97h117v-105q296 -55 315 -381h-192q-10 158 -123 193v-443q173 -149 259.5 -267.5t86.5 -256.5q0 -141 -93 -238.5t-253 -111.5v-166h-117v166q-313 43 -328 385z M270 1178q0 -51 23 -90t98 -117v346q-121 -22 -121 -139zM508 188q135 31 135 150q0 101 -135 213v-363z" />
<glyph unicode="%" horiz-adv-x="1153" d="M33 1106q0 416 188 416q97 0 144 -100t47 -316q0 -220 -47 -318t-144 -98q-94 0 -141 96.5t-47 319.5zM131 0l754 1507h125l-754 -1507h-125zM176 993q0 -113 10 -147.5t35 -34.5q29 0 38 47.5t9 138.5v217q0 109 -11 148t-36 39t-35 -38t-10 -142v-228zM741 403 q0 416 189 416q97 0 143.5 -100t46.5 -316q0 -220 -47 -317.5t-143 -97.5q-95 0 -142 96t-47 319zM885 291q0 -113 10 -147.5t35 -34.5q29 0 38 47.5t9 138.5v217q0 94 -9.5 140t-37.5 46q-25 0 -35 -38t-10 -142v-227z" />
<glyph unicode="&#x26;" horiz-adv-x="961" d="M61 489q0 245 215 431q-83 191 -83 325q0 127 73.5 207t190.5 80q108 0 180 -70.5t72 -177.5q0 -101 -57.5 -206.5t-155.5 -188.5l135 -371h4q41 139 41 385h227v-182h-72q-18 -263 -106 -440l37 -99h141v-182h-282l-29 74q-81 -86 -178 -86q-145 0 -249 146t-104 355z M258 545q0 -107 57 -236t127 -129q56 0 86 68l-182 485q-88 -69 -88 -188zM375 1274q0 -74 49 -197q104 101 104 191q0 38 -22 64t-57 26q-32 0 -53 -24t-21 -60z" />
<glyph unicode="'" horiz-adv-x="391" d="M96 1257v250h199v-250l-64 -333h-71z" />
<glyph unicode="(" horiz-adv-x="469" d="M100 588q0 416 73.5 627.5t252.5 316.5v-113q-74 -48 -102.5 -243t-28.5 -590q0 -415 28.5 -599.5t102.5 -234.5v-108q-172 95 -249 308t-77 636z" />
<glyph unicode=")" horiz-adv-x="469" d="M43 -248q74 50 102.5 234.5t28.5 599.5q0 395 -28.5 590t-102.5 243v113q175 -100 250.5 -309.5t75.5 -634.5q0 -423 -77 -636t-249 -308v108z" />
<glyph unicode="*" horiz-adv-x="788" d="M51 1194l53 170l80 -25q59 -82 191 -139q-12 158 -72 230v77h178v-77q-30 -35 -51.5 -100t-21.5 -130q145 65 194 139l76 25l59 -170l-75 -25q-42 19 -89 19q-95 0 -157 -19q33 -42 98.5 -87.5t103.5 -53.5l44 -59l-146 -107l-47 62q0 100 -78 229q-68 -121 -72 -229 l-45 -62l-145 101l45 65q109 34 193 141q-76 19 -127 19q-57 0 -111 -19z" />
<glyph unicode="+" horiz-adv-x="1366" d="M135 590v158h469v469h158v-469h469v-158h-469v-469h-158v469h-469z" />
<glyph unicode="," horiz-adv-x="342" d="M49 -236q101 32 101 236h-82v248h206v-248q0 -142 -57 -230.5t-168 -107.5v102z" />
<glyph unicode="-" horiz-adv-x="532" d="M55 436v178h422v-178h-422z" />
<glyph unicode="." horiz-adv-x="342" d="M68 0v248h206v-248h-206z" />
<glyph unicode="/" horiz-adv-x="1044" d="M92 0l731 1507h129l-731 -1507h-129z" />
<glyph unicode="0" horiz-adv-x="748" d="M72 756q0 382 70 579t231 197q151 0 226 -178t75 -598q0 -430 -74 -605.5t-227 -175.5q-151 0 -226 174t-75 607zM274 461q0 -164 23.5 -243t75.5 -79q54 0 76 75.5t22 246.5v592q0 172 -24 243.5t-74 71.5q-99 0 -99 -301v-606z" />
<glyph unicode="1" horiz-adv-x="748" d="M193 0v174h90v1081q-43 -33 -90 -43v183q125 48 192 137h86v-1358h84v-174h-362z" />
<glyph unicode="2" horiz-adv-x="748" d="M51 0v121q0 92 20.5 181t61 174t101.5 164l108 142q73 95 94 169t21 204q0 213 -111 213q-117 0 -117 -201q0 -14 13 -141h-176q-15 67 -15 137q0 177 78 273t221 96q148 0 228.5 -101t80.5 -286q0 -124 -36 -230t-93 -174l-133 -157q-49 -58 -85.5 -126.5t-58 -140 t-24.5 -133.5h256v275h174v-459h-608z" />
<glyph unicode="3" horiz-adv-x="748" d="M78 475h182q0 -197 21.5 -266.5t87.5 -69.5q50 0 73 46t23 264q0 159 -38 217.5t-132 58.5v164q70 0 102.5 15t46 65t13.5 161q0 135 -22.5 186.5t-86.5 51.5q-43 0 -68.5 -41.5t-25.5 -236.5h-170q0 237 60.5 339.5t205.5 102.5q140 0 217.5 -106t77.5 -298 q0 -271 -176 -319v-4q199 -55 199 -365q0 -222 -78 -343.5t-223 -121.5q-148 0 -218.5 118.5t-70.5 381.5z" />
<glyph unicode="4" horiz-adv-x="748" d="M35 592l375 940h172v-940h96v-154h-96v-264h73v-174h-340v174h91v264h-304q-16 96 -67 154zM188 592h218v575h-5z" />
<glyph unicode="5" horiz-adv-x="748" d="M63 438h183q0 -160 21.5 -229.5t84.5 -69.5q55 0 77 56.5t22 220.5q0 231 -20.5 306t-80.5 75q-101 0 -106 -164q-91 65 -152 76l25 798h493v-323h-172v139h-172l-12 -442q76 80 160 80q116 0 177.5 -120.5t61.5 -351.5q0 -256 -78.5 -385t-222.5 -129q-136 0 -212.5 121 t-76.5 342z" />
<glyph unicode="6" horiz-adv-x="748" d="M82 723q0 357 30.5 507.5t105 226t177.5 75.5q117 0 189.5 -104t72.5 -330h-176q0 270 -94 270q-56 0 -79 -76.5t-23 -247.5v-210q70 71 166 71q112 0 172.5 -106.5t60.5 -315.5q0 -223 -76 -365.5t-223 -142.5q-159 0 -231 145t-72 603zM285 381q0 -128 23 -185t75 -57 q55 0 76.5 71.5t21.5 270.5q0 151 -21.5 215t-82.5 64q-49 0 -92 -47v-332z" />
<glyph unicode="7" horiz-adv-x="748" d="M45 1110v397h614v-135q-92 -147 -138 -360.5t-57.5 -409.5t-12.5 -428h90v-174h-367v174h84q0 764 223 1149h-262v-213h-174z" />
<glyph unicode="8" horiz-adv-x="748" d="M72 430q0 295 180 383q-158 71 -158 346q0 177 73.5 275t205.5 98q131 0 204.5 -98t73.5 -275q0 -275 -157 -346q182 -94 182 -375q0 -463 -303 -463q-148 0 -224.5 116.5t-76.5 338.5zM274 434q0 -148 17.5 -221.5t81.5 -73.5q61 0 80.5 71.5t19.5 215.5 q0 176 -20 237.5t-80 61.5t-79.5 -65.5t-19.5 -225.5zM279 1122q0 -233 94 -233q50 0 72 56t22 177q0 129 -19 187.5t-75 58.5q-54 0 -74 -56.5t-20 -189.5z" />
<glyph unicode="9" horiz-adv-x="748" d="M63 1024q0 143 34.5 262t101 182.5t163.5 63.5q159 0 231.5 -145t72.5 -603q0 -356 -30.5 -507t-105 -226.5t-178.5 -75.5q-116 0 -189 104t-73 331h176q0 -271 94 -271q57 0 80 76.5t23 247.5v211q-70 -72 -166 -72q-113 0 -173.5 106.5t-60.5 315.5zM266 1026 q0 -157 23 -217.5t82 -60.5q49 0 92 47v331q0 128 -23 185t-75 57q-56 0 -77.5 -71t-21.5 -271z" />
<glyph unicode=":" horiz-adv-x="342" d="M68 0v248h206v-248h-206zM68 803v248h206v-248h-206z" />
<glyph unicode=";" horiz-adv-x="342" d="M49 -236q101 32 101 236h-82v248h206v-248q0 -142 -57 -230.5t-168 -107.5v102zM68 803v248h206v-248h-206z" />
<glyph unicode="&#x3c;" horiz-adv-x="1366" d="M135 596v143l1096 461v-172l-883 -360l883 -361v-170z" />
<glyph unicode="=" horiz-adv-x="1366" d="M135 354v158h1096v-158h-1096zM135 827v158h1096v-158h-1096z" />
<glyph unicode="&#x3e;" horiz-adv-x="1366" d="M135 137v170l883 361l-883 360v170l1096 -459v-143z" />
<glyph unicode="?" d="M72 1044v97q0 182 73 286.5t205 104.5q137 0 210 -109.5t73 -318.5q0 -373 -211 -412l-33 -276h-92l-39 428h10q21 -4 43 -4q70 0 96.5 59t26.5 199q0 142 -17 201t-69 59q-53 0 -69.5 -52.5t-16.5 -164.5v-97h-190zM240 0v248h206v-248h-206z" />
<glyph unicode="@" horiz-adv-x="2079" d="M283 514q0 385 226 633t574 248q321 0 517 -195.5t196 -513.5q0 -200 -78.5 -356t-205.5 -243t-232 -87q-132 0 -152 137q-118 -137 -247 -137q-123 0 -209 114t-86 312q0 274 118.5 461.5t286.5 187.5q84 0 139.5 -40t108.5 -130l25 146h155l-125 -744q-7 -44 -7 -71 q0 -68 54 -68q102 0 210 138.5t108 361.5q0 266 -162.5 427.5t-411.5 161.5q-282 0 -474.5 -206t-192.5 -549q0 -328 188 -514.5t471 -186.5q149 0 292 54.5t228 144.5h179q-105 -157 -299 -244.5t-402 -87.5q-345 0 -568.5 233t-223.5 613zM754 412q0 -127 42.5 -198 t118.5 -71q124 0 194.5 185t70.5 383q0 109 -40.5 167t-115.5 58q-122 0 -196 -159.5t-74 -364.5z" />
<glyph unicode="A" horiz-adv-x="938" d="M35 0v182h94l166 1143h-105v182h558v-182h-105l166 -1143h94v-182h-403v182h96l-37 342h-180l-37 -342h96v-182h-403zM393 707h152l-64 671h-24z" />
<glyph unicode="B" horiz-adv-x="874" d="M47 0v182h115v1143h-115v182h336q187 0 294 -104t107 -285q0 -134 -60.5 -219.5t-168.5 -97.5v-4q124 -24 194 -125.5t70 -247.5q0 -198 -114 -311t-324 -113h-334zM375 182q118 0 170.5 60t52.5 192q0 117 -33.5 175t-77 72.5t-112.5 14.5v-514zM375 879q65 1 104 13 t64.5 59t25.5 147q0 123 -37.5 175t-156.5 52v-446z" />
<glyph unicode="C" horiz-adv-x="831" d="M78 737q0 795 307 795q108 0 164 -98h4v73h182v-489h-182q0 153 -35 234t-100 81q-48 0 -69.5 -39t-29.5 -154.5t-8 -375.5q0 -358 24.5 -474t100.5 -116q65 0 95 84t30 279l187 -52q-2 -237 -86 -373.5t-230 -136.5q-180 0 -267 188.5t-87 573.5z" />
<glyph unicode="D" horiz-adv-x="897" d="M74 0v182h110v1143h-110v182h272q260 0 376 -185t116 -574q0 -381 -118.5 -564.5t-367.5 -183.5h-278zM397 182q116 2 161.5 121t45.5 420q0 235 -19 364t-63 183.5t-125 54.5v-1143z" />
<glyph unicode="E" horiz-adv-x="811" d="M47 0v182h111v1143h-111v182h694v-440h-182v258h-188v-457h153v-182h-153v-504h188v281h182v-463h-694z" />
<glyph unicode="F" horiz-adv-x="768" d="M47 0v182h109v1143h-109v182h696v-440h-182v258h-192v-457h157v-182h-157v-504h125v-182h-447z" />
<glyph unicode="G" horiz-adv-x="831" d="M78 743q0 410 73 599.5t230 189.5q88 0 162 -82v57h182v-489h-182q0 315 -121 315q-46 0 -68.5 -41.5t-32.5 -160t-10 -361.5q0 -265 9 -387t32 -165.5t72 -43.5q71 0 92 93.5t21 277.5h-103v182h324v-137q0 -292 -89.5 -453.5t-250.5 -161.5q-79 0 -146 44.5t-114 136.5 t-63.5 226t-16.5 361z" />
<glyph unicode="H" horiz-adv-x="961" d="M47 0v182h115v1143h-115v182h399v-182h-71v-432h211v432h-72v182h399v-182h-114v-1143h114v-182h-399v182h72v529h-211v-529h71v-182h-399z" />
<glyph unicode="I" horiz-adv-x="532" d="M45 0v182h115v1143h-115v182h444v-182h-116v-1143h116v-182h-444z" />
<glyph unicode="J" horiz-adv-x="532" d="M23 -166q36 -8 57 -8q51 0 66.5 30.5t15.5 108.5v1360h-105v182h426v-182h-108v-1386q0 -295 -250 -295q-44 0 -102 14v176z" />
<glyph unicode="K" horiz-adv-x="918" d="M47 0v182h107v1143h-107v182h406v-182h-86v-1143h86v-182h-406zM385 778l209 547h-92v182h379v-182h-97l-196 -508l231 -635h99v-182h-412v182h96z" />
<glyph unicode="L" horiz-adv-x="768" d="M49 0v182h109v1143h-109v182h436v-182h-114v-1143h184v473h182v-655h-688z" />
<glyph unicode="M" horiz-adv-x="1217" d="M45 0v182h113v1143h-113v182h449l57 -318q12 -67 23 -181l26 -281h6l31 247q18 146 35 246l47 287h450v-182h-112v-1143h114v-182h-442v182h113v764l16 406h-20l-68 -516l-143 -836h-64l-139 774l-76 578h-20l12 -404v-766h113v-182h-408z" />
<glyph unicode="N" horiz-adv-x="981" d="M53 0v182h103v1143h-103v182h334l173 -547l102 -440h6l-23 455v350h-102v182h387v-182h-103v-1325h-168l-185 578q-30 94 -63 228l-83 339h-6l16 -459v-504h102v-182h-387z" />
<glyph unicode="O" horiz-adv-x="854" d="M78 745q0 260 41 435.5t120 263.5t189 88q166 0 257 -197.5t91 -589.5q0 -770 -348 -770q-179 0 -264.5 191t-85.5 579zM311 737q0 -327 24.5 -445t92.5 -118q66 0 90.5 118t24.5 443q0 355 -23 476.5t-92 121.5q-73 0 -95 -133.5t-22 -462.5z" />
<glyph unicode="P" horiz-adv-x="854" d="M49 0v182h123v1143h-123v182h373q195 0 305.5 -124t110.5 -343q0 -216 -104 -338t-349 -122v-398h125v-182h-461zM385 762q72 0 118.5 15.5t78.5 76.5t32 188q0 164 -57.5 223.5t-171.5 59.5v-563z" />
<glyph unicode="Q" horiz-adv-x="854" d="M78 743q0 392 90.5 590.5t255.5 198.5t258.5 -193t93.5 -577q0 -668 -262 -770q137 -78 213 -78q19 0 35 2l-45 -178q-73 0 -116.5 18t-111.5 63q-102 68 -159 68q-49 0 -92 -30l-62 88q77 55 113 78q-211 110 -211 720zM311 737q0 -327 24.5 -445t92.5 -118 q66 0 90.5 118t24.5 443q0 350 -22.5 474t-94.5 124t-93.5 -134.5t-21.5 -461.5z" />
<glyph unicode="R" horiz-adv-x="918" d="M33 0v182h127v1143h-127v182h377q191 0 302 -112t111 -297q0 -239 -180 -355l164 -561h90v-182h-254l-186 690q-33 -6 -84 -6v-502h112v-182h-452zM373 866q121 0 174 55.5t53 176.5q0 128 -53.5 177.5t-173.5 49.5v-459z" />
<glyph unicode="S" horiz-adv-x="788" d="M82 1196q0 148 66.5 242t170.5 94q87 0 152 -70v45h182v-450h-182v114q0 94 -24 135.5t-76 41.5q-88 0 -88 -111q0 -64 26 -131.5t91 -147.5l94 -116q213 -264 213 -504q0 -157 -76.5 -260t-190.5 -103q-93 0 -161 72v-47h-183v518h183v-139q0 -121 25 -170t87 -49 q48 0 77.5 40t29.5 107q0 57 -20.5 124.5t-49 111.5t-145.5 192q-121 152 -161 244.5t-40 216.5z" />
<glyph unicode="T" horiz-adv-x="874" d="M45 956v551h786v-551h-159v392h-127v-1166h119v-182h-451v182h119v1166h-127v-392h-160z" />
<glyph unicode="U" horiz-adv-x="938" d="M35 1325v182h407v-182h-80v-967q0 -109 28 -153.5t95 -44.5q69 0 96 45t27 153v967h-78v182h373v-182h-112v-958q0 -205 -92 -298.5t-228 -93.5q-149 0 -235 90t-86 232v1028h-115z" />
<glyph unicode="V" horiz-adv-x="918" d="M23 1325v182h417v-182h-102q122 -599 131 -924h4q8 293 127 924h-102v182h397v-182h-109l-243 -1337h-164l-252 1337h-104z" />
<glyph unicode="W" horiz-adv-x="1280" d="M23 1325v182h385v-182h-89q86 -446 123 -905q47 464 121 905h-90v182h356v-182h-88q94 -478 131 -905q24 408 115 905h-88v182h356v-182h-84l-221 -1337h-170q-113 579 -143 870q-16 -215 -123 -870h-172l-231 1337h-88z" />
<glyph unicode="X" horiz-adv-x="938" d="M33 0v182h76l247 568l-256 575h-67v182h377v-182h-80l147 -342l121 342h-78v182h365v-182h-90l-220 -569l252 -574h78v-182h-385v182h80l-149 336l-148 -336h88v-182h-358z" />
<glyph unicode="Y" horiz-adv-x="897" d="M12 1325v182h408v-182h-98l139 -405h4l129 405h-96v182h387v-182h-97l-223 -641v-502h107v-182h-426v182h106v484l-243 659h-97z" />
<glyph unicode="Z" d="M51 0v172l383 1153h-186v-317h-182v499h587v-182l-385 -1143h205v320h182v-502h-604z" />
<glyph unicode="[" horiz-adv-x="512" d="M154 -334v1841h313v-127h-125v-1587h125v-127h-313z" />
<glyph unicode="\" horiz-adv-x="1044" d="M92 1507h129l731 -1507h-129z" />
<glyph unicode="]" horiz-adv-x="512" d="M45 -207h125v1587h-125v127h313v-1841h-313v127z" />
<glyph unicode="^" horiz-adv-x="961" d="M53 707l353 800h147l354 -800h-174l-254 598l-252 -598h-174z" />
<glyph unicode="_" horiz-adv-x="1024" d="M-12 -154h1048v-102h-1048v102z" />
<glyph unicode="`" horiz-adv-x="682" d="M121 1481h203l159 -307h-139z" />
<glyph unicode="a" horiz-adv-x="768" d="M68 311q0 160 70 246t179 86q89 0 150 -74v181q0 104 -25.5 132.5t-70.5 28.5q-93 0 -103 -135l-174 49q20 119 96 184.5t187 65.5q120 0 199 -77.5t79 -213.5v-610h82v-174h-270v90h-4q-63 -102 -170 -102q-99 0 -162 89.5t-63 233.5zM266 317q0 -165 107 -165 q51 0 94 55v231q-42 49 -94 49q-107 0 -107 -170z" />
<glyph unicode="b" horiz-adv-x="788" d="M41 0v174h90v1159h-90v174h278v-526h5q67 94 161 94q127 0 180.5 -130t53.5 -437q0 -254 -60.5 -387t-177.5 -133q-97 0 -157 118h-5v-106h-278zM319 416q0 -130 22 -192t81 -62q53 0 75.5 64t22.5 192v178q0 174 -22.5 244.5t-75.5 70.5q-103 0 -103 -219v-276z" />
<glyph unicode="c" d="M70 524q0 284 58.5 411.5t184.5 127.5q99 0 152 -98h4v86h174v-381h-174q0 127 -23.5 178t-78.5 51q-60 0 -79.5 -66.5t-19.5 -228.5v-160q0 -167 23.5 -230.5t79.5 -63.5q58 0 81 49.5t23 183.5l168 -72q-5 -161 -79 -248.5t-193 -87.5q-161 0 -231 125.5t-70 423.5z " />
<glyph unicode="d" horiz-adv-x="768" d="M49 508q0 307 53.5 437t180.5 130q94 0 161 -94h5v352h-121v174h309v-1333h90v-174h-278v106h-5q-30 -58 -65 -88t-92 -30q-115 0 -176.5 135t-61.5 385zM248 358q0 -196 98 -196q63 0 83 64.5t20 273.5v166q0 128 -23.5 186.5t-79.5 58.5q-59 0 -78.5 -69t-19.5 -246 v-238z" />
<glyph unicode="e" d="M68 516q0 283 70 421t218 138q122 0 199.5 -113.5t77.5 -328.5v-160h-367v-45q0 -141 22 -209.5t74 -68.5q87 0 101 167l166 -61q-34 -135 -106 -208t-165 -73q-150 0 -220 129.5t-70 411.5zM266 623h178v92q0 196 -90 196q-51 0 -69.5 -58t-18.5 -185v-45z" />
<glyph unicode="f" horiz-adv-x="512" d="M57 0v174h99v703h-99v174h99v163q0 146 67 232t191 86q171 0 229 -186l-172 -56l-6 17q-21 61 -64 61q-37 0 -47 -35t-10 -119v-163h133v-174h-133v-703h143v-174h-430z" />
<glyph unicode="g" horiz-adv-x="768" d="M66 -291l90 131q71 -41 133 -41q174 0 174 209v103h-4q-38 -59 -72.5 -85t-85.5 -26q-235 0 -235 535q0 287 56 407.5t175 120.5q85 0 166 -90v78h278v-174h-88v-828q0 -194 -93.5 -299.5t-262.5 -105.5q-128 0 -231 65zM264 541q0 -213 22 -290t76 -77q103 0 103 238 v110q0 226 -19.5 301.5t-83.5 75.5q-62 0 -80 -83t-18 -275z" />
<glyph unicode="h" horiz-adv-x="768" d="M41 0v174h78v1159h-78v174h266v-501q79 69 150 69q192 0 192 -301v-600h78v-174h-266v793q0 108 -62 108q-39 0 -92 -51v-676h78v-174h-344z" />
<glyph unicode="i" horiz-adv-x="449" d="M63 0v174h76v703h-76v174h265v-877h59v-174h-324zM106 1411q0 51 35.5 86t85.5 35q51 0 86 -35t35 -86q0 -50 -35 -85.5t-86 -35.5q-50 0 -85.5 35.5t-35.5 85.5z" />
<glyph unicode="j" horiz-adv-x="406" d="M-16 -182q55 0 79 9t39 41t15 91v918h-76v174h264v-1102q0 -151 -64 -228t-257 -77v174zM84 1411q0 51 35 86t86 35q50 0 85.5 -35t35.5 -86q0 -50 -35.5 -85.5t-85.5 -35.5q-51 0 -86 35.5t-35 85.5z" />
<glyph unicode="k" horiz-adv-x="748" d="M41 0v174h82v1159h-82v174h270v-952h4l154 328h-88v168h342v-174h-84l-145 -297l159 -406h78v-174h-203l-213 545h-4v-371h88v-174h-358z" />
<glyph unicode="l" horiz-adv-x="406" d="M41 0v174h74v1159h-74v174h262v-1333h62v-174h-324z" />
<glyph unicode="m" horiz-adv-x="1130" d="M41 877v174h270v-93h4q65 105 162 105q96 0 152 -105q71 105 176 105q199 0 199 -285v-604h77v-174h-266v770q0 67 -12.5 93t-48.5 26q-39 0 -68 -31.5t-29 -40.5v-643h78v-174h-266v770q0 65 -14 92t-49 27q-50 0 -95 -72v-643h78v-174h-344v174h78v703h-82z" />
<glyph unicode="n" horiz-adv-x="788" d="M47 877v174h270v-84h5q65 96 159 96q83 0 130.5 -68.5t47.5 -191.5v-629h78v-174h-266v774q0 64 -12.5 89.5t-46.5 25.5q-38 0 -66.5 -34t-28.5 -42v-639h78v-174h-344v174h78v703h-82z" />
<glyph unicode="o" d="M70 526q0 285 69 417t213 132q285 0 285 -551q0 -549 -285 -549q-146 0 -214 135t-68 416zM268 528q0 -165 8 -245t25 -106.5t51 -26.5q57 0 71.5 86t14.5 290q0 225 -17.5 300t-68.5 75q-50 0 -67 -73.5t-17 -299.5z" />
<glyph unicode="p" horiz-adv-x="768" d="M29 -182h90v1059h-90v174h278v-107h4q60 119 156 119q124 0 182 -137.5t58 -429.5q0 -253 -51 -387t-183 -134q-95 0 -162 95h-4v-252h103v-174h-381v174zM307 385q0 -131 24 -188.5t79 -57.5q61 0 79.5 67.5t18.5 201.5v147q0 183 -19.5 258.5t-78.5 75.5 q-60 0 -81.5 -84.5t-21.5 -253.5v-166z" />
<glyph unicode="q" horiz-adv-x="788" d="M82 543q0 240 59 380t178 140q98 0 158 -119h4v107h279v-174h-90v-1059h90v-174h-381v174h102v252h-4q-67 -95 -162 -95q-126 0 -179.5 130.5t-53.5 437.5zM281 485q0 -208 21.5 -277t76.5 -69q102 0 102 246v166q0 201 -22 269.5t-80 68.5q-56 0 -77 -62t-21 -200v-142z " />
<glyph unicode="r" horiz-adv-x="575" d="M43 0v174h94v703h-94v174h283v-205h4q51 131 100.5 174t142.5 43v-199q-247 0 -247 -282v-408h106v-174h-389z" />
<glyph unicode="s" horiz-adv-x="641" d="M57 788q0 117 54.5 196t134.5 79q82 0 133 -90h4v78h174v-344h-174q0 115 -17 154.5t-59 39.5q-61 0 -61 -86q0 -64 26.5 -104.5t104.5 -96.5q112 -80 157.5 -156.5t45.5 -193.5q0 -120 -57 -198t-142 -78q-80 0 -137 90h-4v-78h-174v362h174q5 -210 88 -210q63 0 63 92 q0 79 -32.5 118t-116.5 105q-100 78 -142.5 151.5t-42.5 169.5z" />
<glyph unicode="t" horiz-adv-x="512" d="M31 877v174h92v172q96 61 188 137v-309h125v-174h-125v-617q0 -104 84 -104q31 0 76 18v-164q-63 -22 -149 -22q-104 0 -151.5 64.5t-47.5 207.5v617h-92z" />
<glyph unicode="u" horiz-adv-x="788" d="M43 877v174h274v-775q0 -63 12.5 -88.5t47.5 -25.5q37 0 65.5 34t28.5 42v639h-92v174h280v-877h84v-174h-272v84h-4q-66 -96 -160 -96q-178 0 -178 260v629h-86z" />
<glyph unicode="v" horiz-adv-x="831" d="M23 885v166h348v-166h-78l123 -578h4l121 578h-80v166h346v-166h-80l-223 -897h-174l-224 897h-83z" />
<glyph unicode="w" horiz-adv-x="1174" d="M23 885v166h329v-166h-71l100 -568l121 734h174l141 -734l86 568h-80v166h328v-166h-80l-180 -897h-172l-137 735l-129 -735h-166l-185 897h-79z" />
<glyph unicode="x" horiz-adv-x="682" d="M43 0v174h74l125 354l-125 349h-74v174h205l90 -289h4l90 289h186v-174h-75l-117 -324l135 -379h82v-174h-211l-100 324h-4l-105 -324h-180z" />
<glyph unicode="y" horiz-adv-x="831" d="M23 885v166h352v-166h-82l135 -570h4l131 570h-86v166h330v-166h-72l-305 -1241h-303v166h166l53 208l-242 867h-81z" />
<glyph unicode="z" d="M53 0v205l404 672h-215v-179h-160v353h563v-203l-403 -674h250v193h159v-367h-598z" />
<glyph unicode="{" horiz-adv-x="684" d="M84 512v152q120 0 144 88t24 219v209q0 352 311 352v-146q-104 -7 -130.5 -56.5t-26.5 -237.5v-144q0 -163 -33 -245t-115 -115q82 -33 115 -115.5t33 -245.5v-143q0 -189 26.5 -238t130.5 -57v-145q-311 0 -311 352v209q0 123 -16 190t-50.5 92t-101.5 25z" />
<glyph unicode="|" horiz-adv-x="1079" d="M473 -195v1702h133v-1702h-133z" />
<glyph unicode="}" horiz-adv-x="684" d="M121 -211q104 8 131 57t27 238v143q0 163 32.5 245.5t114.5 115.5q-82 33 -114.5 115t-32.5 245v144q0 188 -27 237.5t-131 56.5v146q311 0 311 -352v-209q0 -124 16 -190.5t50.5 -91.5t101.5 -25v-152q-120 0 -144 -88t-24 -219v-209q0 -352 -311 -352v145z" />
<glyph unicode="~" horiz-adv-x="1343" d="M160 557v205q107 121 276 121q70 0 133 -19t162 -61q133 -58 193 -58q133 0 262 140v-211q-124 -115 -281 -115q-98 0 -254 70q-151 67 -231 67q-74 0 -131.5 -33.5t-128.5 -105.5z" />
<glyph unicode="&#xa1;" horiz-adv-x="342" d="M68 16l49 635h106l51 -635v-473h-206v473zM68 803v248h206v-248h-206z" />
<glyph unicode="&#xa2;" d="M70 541q0 271 60.5 396.5t186.5 125.5v166h105v-207q40 -32 57 -86h4v115h160v-381h-174q0 120 -22 174.5t-80 54.5q-57 0 -78 -64.5t-21 -218.5v-129q0 -194 18 -265.5t85 -71.5q58 0 80.5 56.5t23.5 176.5l168 -72q-12 -283 -221 -329v-166h-105v166 q-131 16 -189 147.5t-58 411.5z" />
<glyph unicode="&#xa3;" horiz-adv-x="811" d="M57 195q0 89 42.5 145.5t107.5 56.5q56 0 119 -47q6 33 6 51q0 83 -41 256h-211l-2 174h170q-58 313 -58 383q0 137 75 227.5t188 90.5q67 0 121 -26t91.5 -79t51.5 -120t14 -181h-184v78q0 77 -25.5 120.5t-66.5 43.5q-36 0 -56 -32t-20 -89q0 -120 63 -416h220l2 -174 h-193q10 -116 10 -145q0 -140 -37 -248q87 -74 152 -74q88 0 88 146q0 25 -6 57h98q2 -18 2 -59q0 -359 -178 -359q-105 0 -215 136q-36 -69 -73 -102.5t-91 -33.5q-70 0 -117 62t-47 158zM141 188q0 -37 19 -60.5t49 -23.5q57 0 92 103q-59 67 -96 67q-64 0 -64 -86z" />
<glyph unicode="&#xa4;" horiz-adv-x="1366" d="M182 301v2h2v-2h-2zM182 303l131 129q-86 135 -86 270q0 137 86 256l-131 132l107 106l129 -131q120 86 262 86q146 0 266 -86l131 131l105 -106l-129 -132q84 -122 84 -268q0 -142 -84 -258l129 -129l-105 -104l-131 129q-124 -88 -268 -88t-260 88l-129 -129zM375 694 q0 -127 90 -217t217 -90t217 90t90 217t-90 218.5t-217 91.5t-217 -91.5t-90 -218.5z" />
<glyph unicode="&#xa5;" horiz-adv-x="897" d="M12 319v117h340v113h-340v117h340l-243 659h-97v182h408v-182h-98l139 -418h4l129 418h-96v182h387v-182h-97l-223 -659h320v-117h-320v-113h320v-117h-320v-137h107v-182h-426v182h106v137h-340z" />
<glyph unicode="&#xa6;" horiz-adv-x="1079" d="M473 -195v725h133v-725h-133zM473 782v725h133v-725h-133z" />
<glyph unicode="&#xa7;" d="M70 586q0 264 174 383q-117 144 -117 301q0 118 63 190t166 72q104 0 163 -72.5t59 -279.5h-140q0 130 -24.5 169.5t-67.5 39.5q-34 0 -54 -26t-20 -71q0 -78 30.5 -126.5t125.5 -137.5q116 -108 161.5 -208.5t45.5 -246.5q0 -134 -42 -216t-134 -144q116 -146 116 -295 q0 -126 -62.5 -200t-168.5 -74q-100 0 -160.5 71t-60.5 283h141q0 -141 26 -176t62 -35t57 28.5t21 78.5q0 55 -22 104t-65 89l-101 93q-172 157 -172 406zM233 608q0 -209 134 -303q104 84 104 260q0 200 -137 312q-101 -87 -101 -269z" />
<glyph unicode="&#xa8;" horiz-adv-x="682" d="M123 1307q0 38 28 66t66 28t66 -28t28 -66q0 -39 -28 -67t-66 -28t-66 28t-28 67zM371 1307q0 38 28 66t66 28t66 -28t28 -66q0 -39 -28 -67t-66 -28t-66 28t-28 67z" />
<glyph unicode="&#xa9;" horiz-adv-x="1511" d="M0 731q0 203 101 377.5t276.5 275.5t378.5 101q312 0 532.5 -221t220.5 -533q0 -203 -100.5 -378.5t-275.5 -276.5t-377 -101q-312 0 -534 222t-222 534zM125 729q0 -261 184.5 -445t446.5 -184q260 0 444 184.5t184 444.5t-184.5 445.5t-443.5 185.5 q-260 0 -445.5 -185.5t-185.5 -445.5zM360 727q0 197 109.5 311.5t296.5 114.5q128 0 216.5 -60.5t123.5 -174.5l-119 -29q-62 153 -227 153q-119 0 -190.5 -86t-71.5 -231q0 -143 68 -226t184 -83q90 0 157.5 50.5t89.5 141.5l123 -37q-31 -130 -128.5 -202t-233.5 -72 q-181 0 -289.5 117t-108.5 313z" />
<glyph unicode="&#xaa;" horiz-adv-x="492" d="M37 1063q0 97 45.5 155t122.5 58q40 0 88 -35v80q0 46 -10.5 62t-42.5 16q-62 0 -62 -78l-129 31q38 180 193 180q89 0 136.5 -53.5t47.5 -153.5v-328h51v-137h-184v27q-58 -27 -70.5 -31t-34.5 -4q-65 0 -108 59t-43 152zM178 1067q0 -80 60 -80q26 0 49 19v127 q-31 14 -51 14q-58 0 -58 -80z" />
<glyph unicode="&#xab;" horiz-adv-x="748" d="M66 522l174 529h155l-174 -529l174 -522h-155zM352 522l174 529h156l-174 -529l174 -522h-156z" />
<glyph unicode="&#xac;" horiz-adv-x="1366" d="M135 836v157h1096v-645h-158v488h-938z" />
<glyph unicode="&#xad;" horiz-adv-x="532" d="M55 436v178h422v-178h-422z" />
<glyph unicode="&#xae;" horiz-adv-x="1511" d="M0 731q0 203 101 377.5t276.5 275.5t378.5 101q312 0 532.5 -221t220.5 -533q0 -203 -100.5 -378.5t-275.5 -276.5t-377 -101q-312 0 -534 222t-222 534zM125 729q0 -261 184.5 -445t446.5 -184q260 0 444 184.5t184 444.5t-184.5 445.5t-443.5 185.5 q-260 0 -445.5 -185.5t-185.5 -445.5zM426 313v811h346q129 0 205 -61t76 -158q0 -89 -64 -154t-170 -73v-4q37 -9 81.5 -56t100.5 -136l105 -169h-160q-145 262 -190 303t-123 41h-78v-344h-129zM555 770h193q79 0 121 32.5t42 90.5q0 121 -161 121h-195v-244z" />
<glyph unicode="&#xaf;" horiz-adv-x="1024" d="M-13 1661v102h1048v-102h-1048z" />
<glyph unicode="&#xb0;" horiz-adv-x="819" d="M131 1255q0 115 82 196t197 81q114 0 195 -81t81 -196t-80.5 -196.5t-195.5 -81.5t-197 82t-82 196zM254 1255q0 -70 42.5 -113.5t113.5 -43.5q69 0 111 43t42 114t-41.5 111.5t-111.5 40.5q-72 0 -114 -41t-42 -111z" />
<glyph unicode="&#xb1;" horiz-adv-x="1366" d="M135 0v158h1096v-158h-1096zM135 784v158h469v444h158v-444h469v-158h-469v-444h-158v444h-469z" />
<glyph unicode="&#xb2;" horiz-adv-x="449" d="M23 713v53q0 68 18 133.5t42.5 103.5t123.5 152q55 61 55 162q0 94 -51 94q-59 0 -59 -86q0 -14 10 -90h-127q-12 45 -12 90q0 98 49.5 152.5t138.5 54.5q93 0 144 -56.5t51 -160.5q0 -141 -93 -234l-73 -73q-34 -34 -56.5 -79t-29.5 -85h125v139h124v-270h-380z" />
<glyph unicode="&#xb3;" horiz-adv-x="449" d="M37 991h129q1 -107 11 -138.5t42 -31.5q29 0 38 23t9 82q0 104 -15.5 128t-84.5 27v121q65 2 77.5 17t12.5 90q0 102 -45 102q-31 0 -38 -23.5t-7 -119.5h-125q0 98 14.5 150.5t53 83t102.5 30.5q85 0 134.5 -60.5t49.5 -164.5q0 -119 -67 -164q82 -53 82 -193 q0 -118 -50 -184t-139 -66q-50 0 -87.5 20t-61 59.5t-29.5 83t-6 128.5z" />
<glyph unicode="&#xb4;" horiz-adv-x="682" d="M199 1174l159 307h203l-223 -307h-139z" />
<glyph unicode="&#xb5;" horiz-adv-x="1139" d="M303 -356v1407h189v-772q0 -105 63 -105q34 0 62 33.5t28 42.5v801h189v-1051h-185v84h-4q-14 -46 -41.5 -70t-56.5 -24q-30 0 -55 18v-364h-189z" />
<glyph unicode="&#xb6;" horiz-adv-x="1102" d="M113 1087q0 194 128 307t367 113h428v-151h-102v-1712h-152v1712h-133v-1712h-151v1054q-184 9 -284.5 116.5t-100.5 272.5z" />
<glyph unicode="&#xb7;" horiz-adv-x="342" d="M68 629v248h206v-248h-206z" />
<glyph unicode="&#xb8;" horiz-adv-x="682" d="M215 -311l10 108q30 -6 43 -6q82 0 82 68q0 59 -69 59q-15 0 -35 -6l22 59q32 9 58 9q66 0 104.5 -36.5t38.5 -99.5q0 -75 -49 -119t-133 -44q-36 0 -72 8z" />
<glyph unicode="&#xb9;" horiz-adv-x="449" d="M106 713v127h54v506q-29 -13 -54 -15v127q81 25 121 74h68v-692h49v-127h-238z" />
<glyph unicode="&#xba;" horiz-adv-x="449" d="M37 1188q0 344 186 344q189 0 189 -342q0 -344 -187 -344q-188 0 -188 342zM176 1188q0 -133 8.5 -169t38.5 -36t39.5 38t9.5 169q0 133 -9 169t-40 36q-27 0 -37 -37.5t-10 -169.5z" />
<glyph unicode="&#xbb;" horiz-adv-x="748" d="M66 0l174 524l-174 527h155l174 -527l-174 -524h-155zM352 0l174 524l-174 527h156l174 -527l-174 -524h-156z" />
<glyph unicode="&#xbc;" horiz-adv-x="1153" d="M106 713v127h54v506q-29 -13 -54 -15v127q81 25 121 74h68v-692h49v-127h-238zM131 0l754 1507h125l-754 -1507h-125zM657 319l232 498h119v-477h57v-117h-57v-96h45v-127h-226v127h54v96h-176q-8 58 -48 96zM786 340h95v213h-4z" />
<glyph unicode="&#xbd;" horiz-adv-x="1153" d="M106 713v127h54v506q-29 -13 -54 -15v127q81 25 121 74h68v-692h49v-127h-238zM131 0l754 1507h125l-754 -1507h-125zM725 0v53q0 68 18 133.5t42.5 103.5t123.5 152q55 61 55 162q0 94 -51 94q-59 0 -59 -86q0 -14 10 -90h-127q-12 45 -12 90q0 98 49.5 152.5 t138.5 54.5q93 0 144 -56.5t51 -160.5q0 -141 -93 -234l-73 -73q-34 -34 -56.5 -79t-29.5 -85h125v139h124v-270h-380z" />
<glyph unicode="&#xbe;" horiz-adv-x="1153" d="M37 991h129q1 -107 11 -138.5t42 -31.5q29 0 38 23t9 82q0 104 -15.5 128t-84.5 27v121q65 2 77.5 17t12.5 90q0 102 -45 102q-31 0 -38 -23.5t-7 -119.5h-125q0 98 14.5 150.5t53 83t102.5 30.5q85 0 134.5 -60.5t49.5 -164.5q0 -119 -67 -164q82 -53 82 -193 q0 -118 -50 -184t-139 -66q-50 0 -87.5 20t-61 59.5t-29.5 83t-6 128.5zM131 0l754 1507h125l-754 -1507h-125zM657 319l232 498h119v-477h57v-117h-57v-96h45v-127h-226v127h54v96h-176q-8 58 -48 96zM786 340h95v213h-4z" />
<glyph unicode="&#xbf;" d="M72 -53q0 372 211 411l32 277h93l38 -428h-10q-20 4 -43 4q-69 0 -96 -59t-27 -199q0 -148 18.5 -204t67.5 -56q54 0 70 52.5t16 164.5v96h191v-96q0 -182 -73.5 -286.5t-205.5 -104.5q-136 0 -209 109.5t-73 318.5zM258 803v248h207v-248h-207z" />
<glyph unicode="&#xc0;" horiz-adv-x="938" d="M35 0v182h94l166 1143h-105v182h558v-182h-105l166 -1143h94v-182h-403v182h96l-37 342h-180l-37 -342h96v-182h-403zM250 1904h203l159 -307h-139zM393 707h152l-64 671h-24z" />
<glyph unicode="&#xc1;" horiz-adv-x="938" d="M35 0v182h94l166 1143h-105v182h558v-182h-105l166 -1143h94v-182h-403v182h96l-37 342h-180l-37 -342h96v-182h-403zM328 1597l159 307h203l-223 -307h-139zM393 707h152l-64 671h-24z" />
<glyph unicode="&#xc2;" horiz-adv-x="938" d="M35 0v182h94l166 1143h-105v182h558v-182h-105l166 -1143h94v-182h-403v182h96l-37 342h-180l-37 -342h96v-182h-403zM244 1599l121 307h210l121 -307h-143l-82 157l-84 -157h-143zM393 707h152l-64 671h-24z" />
<glyph unicode="&#xc3;" horiz-adv-x="938" d="M35 0v182h94l166 1143h-105v182h558v-182h-105l166 -1143h94v-182h-403v182h96l-37 342h-180l-37 -342h96v-182h-403zM223 1606q0 262 148 262q60 0 127 -57q40 -33 61 -33q47 0 49 90h109q0 -89 -16 -141t-54 -86.5t-88 -34.5q-49 0 -123 55q-45 33 -63 33 q-24 0 -32 -22.5t-9 -65.5h-109zM393 707h152l-64 671h-24z" />
<glyph unicode="&#xc4;" horiz-adv-x="938" d="M35 0v182h94l166 1143h-105v182h558v-182h-105l166 -1143h94v-182h-403v182h96l-37 342h-180l-37 -342h96v-182h-403zM252 1731q0 38 28 66t66 28t66 -28t28 -66q0 -39 -28 -67t-66 -28t-66 28t-28 67zM393 707h152l-64 671h-24zM500 1731q0 38 28 66t66 28t66 -28 t28 -66q0 -39 -28 -67t-66 -28t-66 28t-28 67z" />
<glyph unicode="&#xc5;" horiz-adv-x="938" d="M35 0v182h94l166 1143h-105v182h558v-182h-105l166 -1143h94v-182h-403v182h96l-37 342h-180l-37 -342h96v-182h-403zM297 1733q0 71 51 121.5t123 50.5t122 -50t50 -122t-50 -123t-122 -51t-123 51t-51 123zM373 1733q0 -40 28.5 -69.5t67.5 -29.5q40 0 69 29.5t29 69.5 q0 39 -29 67.5t-69 28.5t-68 -28.5t-28 -67.5zM393 707h152l-64 671h-24z" />
<glyph unicode="&#xc6;" horiz-adv-x="1237" d="M29 0v182h104l219 1143h-108v182h932v-440h-183v258h-188v-457h156v-182h-156v-504h188v283h183v-465h-682v182h98v504h-162l-98 -504h98v-182h-401zM463 868h129v492h-47z" />
<glyph unicode="&#xc7;" horiz-adv-x="831" d="M78 737q0 795 307 795q108 0 164 -98h4v73h182v-489h-182q0 153 -35 234t-100 81q-48 0 -69.5 -39t-29.5 -154.5t-8 -375.5q0 -358 24.5 -474t100.5 -116q65 0 95 84t30 279l187 -52q0 -248 -88.5 -379t-210.5 -131v-4q94 -31 94 -131q0 -75 -49 -119.5t-134 -44.5 q-35 0 -71 9l10 108q30 -6 43 -6q82 0 82 68q0 59 -70 59q-14 0 -35 -6l23 59q12 5 33 8v5q-153 33 -225 216t-72 541z" />
<glyph unicode="&#xc8;" horiz-adv-x="811" d="M47 0v182h111v1143h-111v182h694v-440h-182v258h-188v-457h153v-182h-153v-504h188v281h182v-463h-694zM186 1904h203l159 -307h-139z" />
<glyph unicode="&#xc9;" horiz-adv-x="811" d="M47 0v182h111v1143h-111v182h694v-440h-182v258h-188v-457h153v-182h-153v-504h188v281h182v-463h-694zM264 1597l159 307h203l-223 -307h-139z" />
<glyph unicode="&#xca;" horiz-adv-x="811" d="M47 0v182h111v1143h-111v182h694v-440h-182v258h-188v-457h153v-182h-153v-504h188v281h182v-463h-694zM180 1599l121 307h210l121 -307h-143l-82 157l-84 -157h-143z" />
<glyph unicode="&#xcb;" horiz-adv-x="811" d="M47 0v182h111v1143h-111v182h694v-440h-182v258h-188v-457h153v-182h-153v-504h188v281h182v-463h-694zM188 1731q0 38 28 66t66 28t66 -28t28 -66q0 -39 -28 -67t-66 -28t-66 28t-28 67zM436 1731q0 38 28 66t66 28t66 -28t28 -66q0 -39 -28 -67t-66 -28t-66 28t-28 67z " />
<glyph unicode="&#xcc;" horiz-adv-x="532" d="M45 0v182h115v1143h-115v182h444v-182h-116v-1143h116v-182h-444zM47 1904h203l159 -307h-139z" />
<glyph unicode="&#xcd;" horiz-adv-x="532" d="M45 0v182h115v1143h-115v182h444v-182h-116v-1143h116v-182h-444zM125 1597l159 307h203l-223 -307h-139z" />
<glyph unicode="&#xce;" horiz-adv-x="532" d="M41 1599l121 307h210l121 -307h-143l-82 157l-84 -157h-143zM45 0v182h115v1143h-115v182h444v-182h-116v-1143h116v-182h-444z" />
<glyph unicode="&#xcf;" horiz-adv-x="532" d="M45 0v182h115v1143h-115v182h444v-182h-116v-1143h116v-182h-444zM49 1731q0 38 28 66t66 28t66 -28t28 -66q0 -39 -28 -67t-66 -28t-66 28t-28 67zM297 1731q0 38 28 66t66 28t66 -28t28 -66q0 -39 -28 -67t-66 -28t-66 28t-28 67z" />
<glyph unicode="&#xd0;" horiz-adv-x="897" d="M74 0v182h110v482h-110v182h110v479h-110v182h272q260 0 376 -185t116 -574q0 -381 -118.5 -564.5t-367.5 -183.5h-278zM397 182q116 2 161.5 121t45.5 420q0 235 -19 364t-63 183.5t-125 54.5v-479h119v-182h-119v-482z" />
<glyph unicode="&#xd1;" horiz-adv-x="981" d="M53 0v182h103v1143h-103v182h334l173 -547l102 -440h6l-23 455v350h-102v182h387v-182h-103v-1325h-168l-185 578q-30 94 -63 228l-83 339h-6l16 -459v-504h102v-182h-387zM244 1606q0 262 148 262q60 0 127 -57q40 -33 61 -33q47 0 49 90h109q0 -89 -16 -141t-54 -86.5 t-88 -34.5q-49 0 -123 55q-45 33 -63 33q-24 0 -32 -22.5t-9 -65.5h-109z" />
<glyph unicode="&#xd2;" horiz-adv-x="854" d="M78 745q0 260 41 435.5t120 263.5t189 88q166 0 257 -197.5t91 -589.5q0 -770 -348 -770q-179 0 -264.5 191t-85.5 579zM207 1904h203l159 -307h-139zM311 737q0 -327 24.5 -445t92.5 -118q66 0 90.5 118t24.5 443q0 355 -23 476.5t-92 121.5q-73 0 -95 -133.5 t-22 -462.5z" />
<glyph unicode="&#xd3;" horiz-adv-x="854" d="M78 745q0 260 41 435.5t120 263.5t189 88q166 0 257 -197.5t91 -589.5q0 -770 -348 -770q-179 0 -264.5 191t-85.5 579zM285 1597l159 307h203l-223 -307h-139zM311 737q0 -327 24.5 -445t92.5 -118q66 0 90.5 118t24.5 443q0 355 -23 476.5t-92 121.5q-73 0 -95 -133.5 t-22 -462.5z" />
<glyph unicode="&#xd4;" horiz-adv-x="854" d="M78 745q0 260 41 435.5t120 263.5t189 88q166 0 257 -197.5t91 -589.5q0 -770 -348 -770q-179 0 -264.5 191t-85.5 579zM201 1599l121 307h210l121 -307h-143l-82 157l-84 -157h-143zM311 737q0 -327 24.5 -445t92.5 -118q66 0 90.5 118t24.5 443q0 355 -23 476.5 t-92 121.5q-73 0 -95 -133.5t-22 -462.5z" />
<glyph unicode="&#xd5;" horiz-adv-x="854" d="M78 745q0 260 41 435.5t120 263.5t189 88q166 0 257 -197.5t91 -589.5q0 -770 -348 -770q-179 0 -264.5 191t-85.5 579zM180 1606q0 262 148 262q60 0 127 -57q40 -33 61 -33q47 0 49 90h109q0 -89 -16 -141t-54 -86.5t-88 -34.5q-49 0 -123 55q-45 33 -63 33 q-24 0 -32 -22.5t-9 -65.5h-109zM311 737q0 -327 24.5 -445t92.5 -118q66 0 90.5 118t24.5 443q0 355 -23 476.5t-92 121.5q-73 0 -95 -133.5t-22 -462.5z" />
<glyph unicode="&#xd6;" horiz-adv-x="854" d="M78 745q0 260 41 435.5t120 263.5t189 88q166 0 257 -197.5t91 -589.5q0 -770 -348 -770q-179 0 -264.5 191t-85.5 579zM209 1731q0 38 28 66t66 28t66 -28t28 -66q0 -39 -28 -67t-66 -28t-66 28t-28 67zM311 737q0 -327 24.5 -445t92.5 -118q66 0 90.5 118t24.5 443 q0 355 -23 476.5t-92 121.5q-73 0 -95 -133.5t-22 -462.5zM457 1731q0 38 28 66t66 28t66 -28t28 -66q0 -39 -28 -67t-66 -28t-66 28t-28 67z" />
<glyph unicode="&#xd7;" horiz-adv-x="1368" d="M178 270l395 396l-395 395l113 113l393 -394l395 396l111 -111l-397 -397l397 -398l-113 -112l-395 395l-393 -393z" />
<glyph unicode="&#xd8;" horiz-adv-x="854" d="M72 53l69 170q-63 173 -63 522q0 260 41 435.5t120 263.5t189 88q129 0 207 -111l45 109l102 -68l-75 -184q69 -174 69 -533q0 -770 -348 -770q-135 0 -215 107l-45 -107zM311 637h4l213 524q0 31 -23.5 101.5t-76.5 70.5q-73 0 -95 -133.5t-22 -462.5v-100zM326 358 q0 -26 12 -75.5t24 -70t28 -29.5t38 -9q66 0 90.5 118t24.5 443v148h-4z" />
<glyph unicode="&#xd9;" horiz-adv-x="938" d="M35 1325v182h407v-182h-80v-967q0 -109 28 -153.5t95 -44.5q69 0 96 45t27 153v967h-78v182h373v-182h-112v-958q0 -205 -92 -298.5t-228 -93.5q-149 0 -235 90t-86 232v1028h-115zM250 1904h203l159 -307h-139z" />
<glyph unicode="&#xda;" horiz-adv-x="938" d="M35 1325v182h407v-182h-80v-967q0 -109 28 -153.5t95 -44.5q69 0 96 45t27 153v967h-78v182h373v-182h-112v-958q0 -205 -92 -298.5t-228 -93.5q-149 0 -235 90t-86 232v1028h-115zM328 1597l159 307h203l-223 -307h-139z" />
<glyph unicode="&#xdb;" horiz-adv-x="938" d="M35 1325v182h407v-182h-80v-967q0 -109 28 -153.5t95 -44.5q69 0 96 45t27 153v967h-78v182h373v-182h-112v-958q0 -205 -92 -298.5t-228 -93.5q-149 0 -235 90t-86 232v1028h-115zM244 1599l121 307h210l121 -307h-143l-82 157l-84 -157h-143z" />
<glyph unicode="&#xdc;" horiz-adv-x="938" d="M35 1325v182h407v-182h-80v-967q0 -109 28 -153.5t95 -44.5q69 0 96 45t27 153v967h-78v182h373v-182h-112v-958q0 -205 -92 -298.5t-228 -93.5q-149 0 -235 90t-86 232v1028h-115zM252 1731q0 38 28 66t66 28t66 -28t28 -66q0 -39 -28 -67t-66 -28t-66 28t-28 67z M500 1731q0 38 28 66t66 28t66 -28t28 -66q0 -39 -28 -67t-66 -28t-66 28t-28 67z" />
<glyph unicode="&#xdd;" horiz-adv-x="897" d="M12 1325v182h408v-182h-98l139 -405h4l129 405h-96v182h387v-182h-97l-223 -641v-502h107v-182h-426v182h106v484l-243 659h-97zM307 1597l159 307h203l-223 -307h-139z" />
<glyph unicode="&#xde;" horiz-adv-x="854" d="M49 0v182h123v1143h-123v182h459v-182h-123v-108h37q196 0 306 -124t110 -343q0 -217 -105 -339t-348 -122v-107h125v-182h-461zM385 471q139 0 184 68t45 213q0 156 -55 219t-174 63v-563z" />
<glyph unicode="&#xdf;" horiz-adv-x="788" d="M45 0v174h88v995q0 363 268 363q126 0 202.5 -85.5t76.5 -248.5q0 -222 -148 -274v-4q104 -28 147.5 -137t43.5 -326q0 -243 -70.5 -356t-177.5 -113q-21 0 -39 4v170q42 0 59 17t23 76.5t6 203.5q0 230 -24.5 305.5t-112.5 75.5v141q59 7 84 47.5t25 138.5 q0 111 -19 156t-74 45q-81 0 -81 -145v-1049h55v-174h-332z" />
<glyph unicode="&#xe0;" horiz-adv-x="768" d="M68 311q0 160 70 246t179 86q89 0 150 -74v181q0 104 -25.5 132.5t-70.5 28.5q-93 0 -103 -135l-174 49q20 119 96 184.5t187 65.5q120 0 199 -77.5t79 -213.5v-610h82v-174h-270v90h-4q-63 -102 -170 -102q-99 0 -162 89.5t-63 233.5zM164 1481h203l159 -307h-139z M266 317q0 -165 107 -165q51 0 94 55v231q-42 49 -94 49q-107 0 -107 -170z" />
<glyph unicode="&#xe1;" horiz-adv-x="768" d="M68 311q0 160 70 246t179 86q89 0 150 -74v181q0 104 -25.5 132.5t-70.5 28.5q-93 0 -103 -135l-174 49q20 119 96 184.5t187 65.5q120 0 199 -77.5t79 -213.5v-610h82v-174h-270v90h-4q-63 -102 -170 -102q-99 0 -162 89.5t-63 233.5zM242 1174l159 307h203l-223 -307 h-139zM266 317q0 -165 107 -165q51 0 94 55v231q-42 49 -94 49q-107 0 -107 -170z" />
<glyph unicode="&#xe2;" horiz-adv-x="768" d="M68 311q0 160 70 246t179 86q89 0 150 -74v181q0 104 -25.5 132.5t-70.5 28.5q-93 0 -103 -135l-174 49q20 119 96 184.5t187 65.5q120 0 199 -77.5t79 -213.5v-610h82v-174h-270v90h-4q-63 -102 -170 -102q-99 0 -162 89.5t-63 233.5zM158 1176l121 307h210l121 -307 h-143l-82 157l-84 -157h-143zM266 317q0 -165 107 -165q51 0 94 55v231q-42 49 -94 49q-107 0 -107 -170z" />
<glyph unicode="&#xe3;" horiz-adv-x="768" d="M68 311q0 160 70 246t179 86q89 0 150 -74v181q0 104 -25.5 132.5t-70.5 28.5q-93 0 -103 -135l-174 49q20 119 96 184.5t187 65.5q120 0 199 -77.5t79 -213.5v-610h82v-174h-270v90h-4q-63 -102 -170 -102q-99 0 -162 89.5t-63 233.5zM137 1182q0 262 148 262 q60 0 127 -57q40 -33 61 -33q47 0 49 90h109q0 -89 -16 -141t-54 -86.5t-88 -34.5q-49 0 -123 55q-45 33 -63 33q-24 0 -32 -22.5t-9 -65.5h-109zM266 317q0 -165 107 -165q51 0 94 55v231q-42 49 -94 49q-107 0 -107 -170z" />
<glyph unicode="&#xe4;" horiz-adv-x="768" d="M68 311q0 160 70 246t179 86q89 0 150 -74v181q0 104 -25.5 132.5t-70.5 28.5q-93 0 -103 -135l-174 49q20 119 96 184.5t187 65.5q120 0 199 -77.5t79 -213.5v-610h82v-174h-270v90h-4q-63 -102 -170 -102q-99 0 -162 89.5t-63 233.5zM166 1307q0 38 28 66t66 28t66 -28 t28 -66q0 -39 -28 -67t-66 -28t-66 28t-28 67zM266 317q0 -165 107 -165q51 0 94 55v231q-42 49 -94 49q-107 0 -107 -170zM414 1307q0 38 28 66t66 28t66 -28t28 -66q0 -39 -28 -67t-66 -28t-66 28t-28 67z" />
<glyph unicode="&#xe5;" horiz-adv-x="768" d="M68 311q0 160 70 246t179 86q89 0 150 -74v181q0 104 -25.5 132.5t-70.5 28.5q-93 0 -103 -135l-174 49q20 119 96 184.5t187 65.5q120 0 199 -77.5t79 -213.5v-610h82v-174h-270v90h-4q-63 -102 -170 -102q-99 0 -162 89.5t-63 233.5zM211 1309q0 71 51 121.5t123 50.5 t122 -50t50 -122t-50 -123t-122 -51t-123 51t-51 123zM266 317q0 -165 107 -165q51 0 94 55v231q-42 49 -94 49q-107 0 -107 -170zM287 1309q0 -40 28.5 -69.5t67.5 -29.5q40 0 69 29.5t29 69.5q0 39 -29 67.5t-69 28.5t-68 -28.5t-28 -67.5z" />
<glyph unicode="&#xe6;" horiz-adv-x="1067" d="M66 311q0 149 64 240.5t167 91.5q94 0 139 -78h4v221q0 125 -82 125q-44 0 -65.5 -32.5t-30.5 -102.5l-180 53q11 119 84.5 182.5t191.5 63.5q116 0 197 -67q70 67 160 67q129 0 205.5 -120t76.5 -324v-160h-368q0 -173 22 -247t76 -74q88 0 94 167l174 -59 q-36 -137 -109.5 -210t-168.5 -73q-138 0 -221 148q-106 -148 -209 -148q-99 0 -160 92t-61 244zM264 305q0 -166 94 -166q33 0 57.5 25.5t24.5 32.5v243q-35 45 -78 45q-98 0 -98 -180zM629 621h178v88q0 104 -20.5 153t-69.5 49q-88 0 -88 -176v-114z" />
<glyph unicode="&#xe7;" d="M70 524q0 284 58.5 411.5t184.5 127.5q99 0 152 -98h4v86h174v-381h-174q0 127 -23.5 178t-78.5 51q-60 0 -79.5 -66.5t-19.5 -228.5v-160q0 -167 23.5 -230.5t79.5 -63.5q58 0 81 49.5t23 183.5l168 -72q0 -150 -76 -243t-186 -93v-4q100 -24 100 -131q0 -75 -49 -119.5 t-133 -44.5q-36 0 -72 9l11 108q29 -6 43 -6q81 0 81 68q0 59 -69 59q-14 0 -35 -6l23 59q30 8 43 8v5q-131 11 -192.5 138.5t-61.5 405.5z" />
<glyph unicode="&#xe8;" d="M68 516q0 283 70 421t218 138q122 0 199.5 -113.5t77.5 -328.5v-160h-367v-45q0 -141 22 -209.5t74 -68.5q87 0 101 167l166 -61q-34 -135 -106 -208t-165 -73q-150 0 -220 129.5t-70 411.5zM133 1481h203l159 -307h-139zM266 623h178v92q0 196 -90 196q-51 0 -69.5 -58 t-18.5 -185v-45z" />
<glyph unicode="&#xe9;" d="M68 516q0 283 70 421t218 138q122 0 199.5 -113.5t77.5 -328.5v-160h-367v-45q0 -141 22 -209.5t74 -68.5q87 0 101 167l166 -61q-34 -135 -106 -208t-165 -73q-150 0 -220 129.5t-70 411.5zM211 1174l159 307h203l-223 -307h-139zM266 623h178v92q0 196 -90 196 q-51 0 -69.5 -58t-18.5 -185v-45z" />
<glyph unicode="&#xea;" d="M68 516q0 283 70 421t218 138q122 0 199.5 -113.5t77.5 -328.5v-160h-367v-45q0 -141 22 -209.5t74 -68.5q87 0 101 167l166 -61q-34 -135 -106 -208t-165 -73q-150 0 -220 129.5t-70 411.5zM127 1176l121 307h210l121 -307h-143l-82 157l-84 -157h-143zM266 623h178v92 q0 196 -90 196q-51 0 -69.5 -58t-18.5 -185v-45z" />
<glyph unicode="&#xeb;" d="M68 516q0 283 70 421t218 138q122 0 199.5 -113.5t77.5 -328.5v-160h-367v-45q0 -141 22 -209.5t74 -68.5q87 0 101 167l166 -61q-34 -135 -106 -208t-165 -73q-150 0 -220 129.5t-70 411.5zM135 1307q0 38 28 66t66 28t66 -28t28 -66q0 -39 -28 -67t-66 -28t-66 28 t-28 67zM266 623h178v92q0 196 -90 196q-51 0 -69.5 -58t-18.5 -185v-45zM383 1307q0 38 28 66t66 28t66 -28t28 -66q0 -39 -28 -67t-66 -28t-66 28t-28 67z" />
<glyph unicode="&#xec;" horiz-adv-x="449" d="M4 1481h203l159 -307h-139zM63 0v174h76v703h-76v174h265v-877h59v-174h-324z" />
<glyph unicode="&#xed;" horiz-adv-x="449" d="M63 0v174h76v703h-76v174h265v-877h59v-174h-324zM82 1174l159 307h203l-223 -307h-139z" />
<glyph unicode="&#xee;" horiz-adv-x="449" d="M-2 1176l121 307h210l121 -307h-143l-82 157l-84 -157h-143zM63 0v174h76v703h-76v174h265v-877h59v-174h-324z" />
<glyph unicode="&#xef;" horiz-adv-x="449" d="M6 1307q0 38 28 66t66 28t66 -28t28 -66q0 -39 -28 -67t-66 -28t-66 28t-28 67zM63 0v174h76v703h-76v174h265v-877h59v-174h-324zM254 1307q0 38 28 66t66 28t66 -28t28 -66q0 -39 -28 -67t-66 -28t-66 28t-28 67z" />
<glyph unicode="&#xf0;" horiz-adv-x="711" d="M70 512q0 563 239 563q63 0 113 -37l2 4q-36 147 -90 228l-146 -103l-51 64l152 106q-58 76 -107 111l109 84q57 -35 125 -107l151 107l51 -64l-151 -106q170 -221 170 -735q0 -357 -70 -504.5t-219 -147.5q-278 0 -278 537zM268 489q0 -211 18 -275t66 -64q57 0 71.5 86 t14.5 290q0 225 -17.5 300t-68.5 75t-67.5 -80t-16.5 -332z" />
<glyph unicode="&#xf1;" horiz-adv-x="788" d="M47 877v174h270v-84h5q65 96 159 96q83 0 130.5 -68.5t47.5 -191.5v-629h78v-174h-266v774q0 64 -12.5 89.5t-46.5 25.5q-38 0 -66.5 -34t-28.5 -42v-639h78v-174h-344v174h78v703h-82zM147 1182q0 262 148 262q60 0 127 -57q40 -33 61 -33q47 0 49 90h109 q0 -89 -16 -141t-54 -86.5t-88 -34.5q-49 0 -123 55q-45 33 -63 33q-24 0 -32 -22.5t-9 -65.5h-109z" />
<glyph unicode="&#xf2;" d="M70 526q0 285 69 417t213 132q285 0 285 -551q0 -549 -285 -549q-146 0 -214 135t-68 416zM133 1481h203l159 -307h-139zM268 528q0 -165 8 -245t25 -106.5t51 -26.5q57 0 71.5 86t14.5 290q0 225 -17.5 300t-68.5 75q-50 0 -67 -73.5t-17 -299.5z" />
<glyph unicode="&#xf3;" d="M70 526q0 285 69 417t213 132q285 0 285 -551q0 -549 -285 -549q-146 0 -214 135t-68 416zM211 1174l159 307h203l-223 -307h-139zM268 528q0 -165 8 -245t25 -106.5t51 -26.5q57 0 71.5 86t14.5 290q0 225 -17.5 300t-68.5 75q-50 0 -67 -73.5t-17 -299.5z" />
<glyph unicode="&#xf4;" d="M70 526q0 285 69 417t213 132q285 0 285 -551q0 -549 -285 -549q-146 0 -214 135t-68 416zM127 1176l121 307h210l121 -307h-143l-82 157l-84 -157h-143zM268 528q0 -165 8 -245t25 -106.5t51 -26.5q57 0 71.5 86t14.5 290q0 225 -17.5 300t-68.5 75q-50 0 -67 -73.5 t-17 -299.5z" />
<glyph unicode="&#xf5;" d="M70 526q0 285 69 417t213 132q285 0 285 -551q0 -549 -285 -549q-146 0 -214 135t-68 416zM106 1182q0 262 148 262q60 0 127 -57q40 -33 61 -33q47 0 49 90h109q0 -89 -16 -141t-54 -86.5t-88 -34.5q-49 0 -123 55q-45 33 -63 33q-24 0 -32 -22.5t-9 -65.5h-109z M268 528q0 -165 8 -245t25 -106.5t51 -26.5q57 0 71.5 86t14.5 290q0 225 -17.5 300t-68.5 75q-50 0 -67 -73.5t-17 -299.5z" />
<glyph unicode="&#xf6;" d="M70 526q0 285 69 417t213 132q285 0 285 -551q0 -549 -285 -549q-146 0 -214 135t-68 416zM135 1307q0 38 28 66t66 28t66 -28t28 -66q0 -39 -28 -67t-66 -28t-66 28t-28 67zM268 528q0 -165 8 -245t25 -106.5t51 -26.5q57 0 71.5 86t14.5 290q0 225 -17.5 300t-68.5 75 q-50 0 -67 -73.5t-17 -299.5zM383 1307q0 38 28 66t66 28t66 -28t28 -66q0 -39 -28 -67t-66 -28t-66 28t-28 67z" />
<glyph unicode="&#xf7;" horiz-adv-x="1368" d="M135 590v158h1094v-158h-1094zM584 254q0 41 28.5 69.5t69.5 28.5t69.5 -28.5t28.5 -69.5t-28.5 -69.5t-69.5 -28.5t-69.5 28.5t-28.5 69.5zM584 1083q0 42 28.5 70.5t69.5 28.5t69.5 -28.5t28.5 -70.5q0 -41 -28.5 -69.5t-69.5 -28.5t-69.5 28.5t-28.5 69.5z" />
<glyph unicode="&#xf8;" d="M70 0l55 137q-55 129 -55 389q0 285 69 417t213 132q102 0 174 -74l19 50h92l-55 -144q55 -136 55 -383q0 -549 -285 -549q-62 0 -98 16.5t-72 61.5l-20 -53h-92zM268 430h4l152 377q0 36 -20 65t-52 29q-50 0 -67 -71t-17 -302v-98zM279 244q0 -36 21 -65t52 -29 q57 0 71.5 86t14.5 290v107h-4z" />
<glyph unicode="&#xf9;" horiz-adv-x="788" d="M43 877v174h274v-775q0 -63 12.5 -88.5t47.5 -25.5q37 0 65.5 34t28.5 42v639h-92v174h280v-877h84v-174h-272v84h-4q-66 -96 -160 -96q-178 0 -178 260v629h-86zM174 1481h203l159 -307h-139z" />
<glyph unicode="&#xfa;" horiz-adv-x="788" d="M43 877v174h274v-775q0 -63 12.5 -88.5t47.5 -25.5q37 0 65.5 34t28.5 42v639h-92v174h280v-877h84v-174h-272v84h-4q-66 -96 -160 -96q-178 0 -178 260v629h-86zM252 1174l159 307h203l-223 -307h-139z" />
<glyph unicode="&#xfb;" horiz-adv-x="788" d="M43 877v174h274v-775q0 -63 12.5 -88.5t47.5 -25.5q37 0 65.5 34t28.5 42v639h-92v174h280v-877h84v-174h-272v84h-4q-66 -96 -160 -96q-178 0 -178 260v629h-86zM168 1176l121 307h210l121 -307h-143l-82 157l-84 -157h-143z" />
<glyph unicode="&#xfc;" horiz-adv-x="788" d="M43 877v174h274v-775q0 -63 12.5 -88.5t47.5 -25.5q37 0 65.5 34t28.5 42v639h-92v174h280v-877h84v-174h-272v84h-4q-66 -96 -160 -96q-178 0 -178 260v629h-86zM176 1307q0 38 28 66t66 28t66 -28t28 -66q0 -39 -28 -67t-66 -28t-66 28t-28 67zM424 1307q0 38 28 66 t66 28t66 -28t28 -66q0 -39 -28 -67t-66 -28t-66 28t-28 67z" />
<glyph unicode="&#xfd;" horiz-adv-x="831" d="M23 885v166h352v-166h-82l135 -570h4l131 570h-86v166h330v-166h-72l-305 -1241h-303v166h166l53 208l-242 867h-81zM274 1174l159 307h203l-223 -307h-139z" />
<glyph unicode="&#xfe;" horiz-adv-x="752" d="M29 -182h90v1515h-90v174h278v-561l4 -2q60 119 156 119q124 0 182 -137.5t58 -429.5q0 -253 -51 -387t-183 -134q-95 0 -162 95h-4v-252h103v-174h-381v174zM307 385q0 -131 24 -188.5t79 -57.5q61 0 79.5 67.5t18.5 201.5v147q0 183 -19.5 258.5t-78.5 75.5 q-60 0 -81.5 -84.5t-21.5 -253.5v-166z" />
<glyph unicode="&#xff;" horiz-adv-x="831" d="M23 885v166h352v-166h-82l135 -570h4l131 570h-86v166h330v-166h-72l-305 -1241h-303v166h166l53 208l-242 867h-81zM199 1307q0 38 28 66t66 28t66 -28t28 -66q0 -39 -28 -67t-66 -28t-66 28t-28 67zM447 1307q0 38 28 66t66 28t66 -28t28 -66q0 -39 -28 -67t-66 -28 t-66 28t-28 67z" />
<glyph unicode="&#x152;" horiz-adv-x="1174" d="M61 752q0 388 115.5 571.5t364.5 183.5h544v-440h-182v258h-186v-457h155v-182h-155v-504h186v283h182v-465h-538q-254 0 -370 182t-116 570zM295 754q0 -312 43 -442t166 -130v1143q-120 5 -164.5 -120t-44.5 -451z" />
<glyph unicode="&#x153;" horiz-adv-x="1067" d="M68 539q0 263 68 399.5t224 136.5q103 0 185 -84q77 84 180 84q124 0 198 -115.5t74 -328.5v-160h-368q0 -191 23 -256t79 -65q83 0 92 172l168 -64q-35 -137 -105.5 -210t-164.5 -73q-101 0 -176 84q-83 -84 -189 -84q-146 0 -217 137t-71 427zM266 530 q0 -230 18.5 -305t71.5 -75q61 0 77 88t16 292q0 238 -16.5 304.5t-74.5 66.5t-75 -74t-17 -297zM629 621h178v88q0 104 -20.5 153t-69.5 49q-88 0 -88 -176v-114z" />
<glyph unicode="&#x178;" horiz-adv-x="897" d="M12 1325v182h408v-182h-98l139 -405h4l129 405h-96v182h387v-182h-97l-223 -641v-502h107v-182h-426v182h106v484l-243 659h-97zM231 1731q0 38 28 66t66 28t66 -28t28 -66q0 -39 -28 -67t-66 -28t-66 28t-28 67zM479 1731q0 38 28 66t66 28t66 -28t28 -66q0 -39 -28 -67 t-66 -28t-66 28t-28 67z" />
<glyph unicode="&#x2c6;" horiz-adv-x="682" d="M115 1176l121 307h210l121 -307h-143l-82 157l-84 -157h-143z" />
<glyph unicode="&#x2dc;" horiz-adv-x="682" d="M94 1182q0 262 148 262q60 0 127 -57q40 -33 61 -33q47 0 49 90h109q0 -89 -16 -141t-54 -86.5t-88 -34.5q-49 0 -123 55q-45 33 -63 33q-24 0 -32 -22.5t-9 -65.5h-109z" />
<glyph unicode="&#x2000;" horiz-adv-x="953" />
<glyph unicode="&#x2001;" horiz-adv-x="1906" />
<glyph unicode="&#x2002;" horiz-adv-x="953" />
<glyph unicode="&#x2003;" horiz-adv-x="1906" />
<glyph unicode="&#x2004;" horiz-adv-x="635" />
<glyph unicode="&#x2005;" horiz-adv-x="476" />
<glyph unicode="&#x2006;" horiz-adv-x="317" />
<glyph unicode="&#x2007;" horiz-adv-x="317" />
<glyph unicode="&#x2008;" horiz-adv-x="238" />
<glyph unicode="&#x2009;" horiz-adv-x="381" />
<glyph unicode="&#x200a;" horiz-adv-x="105" />
<glyph unicode="&#x2010;" horiz-adv-x="532" d="M55 436v178h422v-178h-422z" />
<glyph unicode="&#x2011;" horiz-adv-x="532" d="M55 436v178h422v-178h-422z" />
<glyph unicode="&#x2012;" horiz-adv-x="532" d="M55 436v178h422v-178h-422z" />
<glyph unicode="&#x2013;" horiz-adv-x="1024" d="M-18 453v131h1060v-131h-1060z" />
<glyph unicode="&#x2014;" horiz-adv-x="2048" d="M-18 453v131h2084v-131h-2084z" />
<glyph unicode="&#x2018;" horiz-adv-x="342" d="M68 922v247q0 142 57 231t168 107v-102q-100 -31 -100 -236h81v-247h-206z" />
<glyph unicode="&#x2019;" horiz-adv-x="342" d="M49 922v102q101 31 101 236h-82v247h206v-247q0 -142 -57 -231t-168 -107z" />
<glyph unicode="&#x201a;" horiz-adv-x="342" d="M49 -236q101 32 101 236h-82v248h206v-248q0 -142 -57 -230.5t-168 -107.5v102z" />
<glyph unicode="&#x201c;" horiz-adv-x="682" d="M59 922v247q0 142 57.5 231t168.5 107v-102q-101 -31 -101 -236h82v-247h-207zM397 922v247q0 142 57.5 231t168.5 107v-102q-101 -31 -101 -236h82v-247h-207z" />
<glyph unicode="&#x201d;" horiz-adv-x="682" d="M59 922v102q101 31 101 236h-82v247h207v-247q0 -142 -57.5 -231t-168.5 -107zM397 922v102q101 31 101 236h-82v247h207v-247q0 -142 -57.5 -231t-168.5 -107z" />
<glyph unicode="&#x201e;" horiz-adv-x="682" d="M59 -236q101 32 101 236h-82v248h207v-248q0 -142 -57.5 -230.5t-168.5 -107.5v102zM397 -236q101 32 101 236h-82v248h207v-248q0 -142 -57.5 -230.5t-168.5 -107.5v102z" />
<glyph unicode="&#x2022;" horiz-adv-x="717" d="M109 678q0 104 73.5 177t177.5 73t177 -73t73 -177q0 -105 -72.5 -178.5t-177.5 -73.5q-103 0 -177 74t-74 178z" />
<glyph unicode="&#x2026;" horiz-adv-x="2048" d="M238 0v248h206v-248h-206zM922 0v248h206v-248h-206zM1606 0v248h206v-248h-206z" />
<glyph unicode="&#x202f;" horiz-adv-x="381" />
<glyph unicode="&#x2039;" horiz-adv-x="469" d="M70 522l174 529h157l-176 -529l176 -522h-157z" />
<glyph unicode="&#x203a;" horiz-adv-x="469" d="M68 0l176 524l-176 527h157l174 -527l-174 -524h-157z" />
<glyph unicode="&#x205f;" horiz-adv-x="476" />
<glyph unicode="&#x20ac;" horiz-adv-x="748" d="M10 606v117h88v102h-88v117h92q21 590 293 590q96 0 144 -98h4v73h162v-448h-181q0 174 -24 239.5t-72 65.5q-62 0 -90.5 -86.5t-34.5 -335.5h189v-117h-191v-102h191v-117h-189q5 -230 36 -346.5t107 -116.5q51 0 68.5 81.5t17.5 271.5l185 -52q0 -469 -275 -469 q-163 0 -245.5 155.5t-96.5 475.5h-90z" />
<glyph unicode="&#x2122;" horiz-adv-x="2048" d="M217 1378v129h594v-129h-225v-688h-146v688h-223zM881 690v817h235l146 -559h4l145 559h236v-817h-146v651h-4l-168 -651h-131l-168 651h-4v-651h-145z" />
<glyph unicode="&#xe000;" horiz-adv-x="1050" d="M0 0v1050h1050v-1050h-1050z" />
<glyph unicode="&#xfb01;" horiz-adv-x="788" d="M57 0v174h84v703h-84v174h84v161q0 145 73.5 232.5t191.5 87.5q105 0 177.5 -63t90.5 -179l-189 -61q-5 72 -22 105.5t-57 33.5q-76 0 -76 -158v-159h344v-877h78v-174h-314v174h47v703h-155v-703h51v-174h-324z" />
<glyph unicode="&#xfb02;" horiz-adv-x="788" d="M57 0v174h84v703h-84v174h84v149q0 161 77 246.5t194 85.5q21 0 38.5 -2.5t36.5 -8.5l39 -14h148v-1333h78v-174h-314v174h47v1075q0 119 -75 119q-80 0 -80 -151v-166h94v-174h-94v-703h49v-174h-322z" />
</font>
</defs>
</svg>
